<?xml version="1.0" standalone="no"?>
<!DOCTYPE svg PUBLIC "-//W3C//DTD SVG 1.1//EN" "http://www.w3.org/Graphics/SVG/1.1/DTD/svg11.dtd" >
<svg xmlns="http://www.w3.org/2000/svg">
<metadata>Generated by IcoMoon</metadata>
<defs>
<font id="sgcon" horiz-adv-x="1024">
<font-face units-per-em="1024" ascent="870.850439882698" descent="-153.14956011730206" />
<missing-glyph horiz-adv-x="1024" />
<glyph unicode="&#x20;" horiz-adv-x="512.5004887585533" d="" />
<glyph unicode="&#xe000;" glyph-name="error" d="M554.542 292.775v256.25h-84.082v-256.25h84.082zM554.542 120.607v86.084h-84.082v-86.084h84.082zM512.5 761.233c236.231 0 426.416-190.186 426.416-426.416s-190.186-426.416-426.416-426.416-426.416 190.186-426.416 426.416 190.186 426.416 426.416 426.416z" />
<glyph unicode="&#xe001;" glyph-name="error_outline" d="M512.5-7.518c188.184 0 342.334 154.151 342.334 342.334s-154.151 342.334-342.334 342.334-342.334-154.151-342.334-342.334 154.151-342.334 342.334-342.334zM512.5 761.233c236.231 0 426.416-190.186 426.416-426.416s-190.186-426.416-426.416-426.416-426.416 190.186-426.416 426.416 190.186 426.416 426.416 426.416zM470.459 549.025h84.082v-256.25h-84.082v256.25zM470.459 206.691h84.082v-86.084h-84.082v86.084z" />
<glyph unicode="&#xe033;" glyph-name="not_interested" d="M782.764 124.611c46.045 58.057 72.070 132.129 72.070 210.205 0 188.184-154.151 342.334-342.334 342.334-78.076 0-152.149-26.025-210.205-72.070zM512.5-7.518c78.076 0 152.149 26.025 210.205 72.070l-480.469 480.469c-46.045-58.057-72.070-132.129-72.070-210.205 0-188.184 154.151-342.334 342.334-342.334zM512.5 761.233c236.231 0 426.416-190.186 426.416-426.416s-190.186-426.416-426.416-426.416-426.416 190.186-426.416 426.416 190.186 426.416 426.416 426.416z" />
<glyph unicode="&#xe048;" glyph-name="subtitles" d="M854.835 248.732v86.084h-428.418v-86.084h428.418zM854.835 78.566v86.084h-172.168v-86.084h172.168zM598.585 78.566v86.084h-428.418v-86.084h428.418zM170.166 334.816v-86.084h172.168v86.084h-172.168zM854.835 677.151c46.045 0 84.082-40.039 84.082-86.084v-512.5c0-46.045-38.037-86.084-84.082-86.084h-684.669c-46.045 0-84.082 40.039-84.082 86.084v512.5c0 46.045 38.037 86.084 84.082 86.084h684.669z" />
<glyph unicode="&#xe051;" glyph-name="web" d="M854.835 78.566v384.375h-172.168v-384.375h172.168zM640.626 292.775v170.166h-470.459v-170.166h470.459zM640.626 78.566v170.166h-470.459v-170.166h470.459zM854.835 677.151c46.045 0 84.082-40.039 84.082-86.084v-512.5c0-46.045-38.037-86.084-84.082-86.084h-684.669c-46.045 0-84.082 40.039-84.082 86.084v512.5c0 46.045 38.037 86.084 84.082 86.084h684.669z" />
<glyph unicode="&#xe05e;" glyph-name="fiber_new" d="M874.854 248.732v214.209h-52.051v-192.188h-48.047v150.147h-54.053v-150.147h-48.047v192.188h-54.053v-214.209c0-24.023 20.020-42.041 44.043-42.041h170.166c24.023 0 42.041 18.018 42.041 42.041zM576.563 408.889v54.053h-170.166v-256.25h170.166v54.053h-106.104v46.045h106.104v54.053h-106.104v48.047h106.104zM362.354 206.691v256.25h-52.051v-150.147l-108.106 150.147h-52.051v-256.25h52.051v150.147l110.108-150.147h50.049zM854.835 677.151c48.047 0 84.082-38.037 84.082-86.084v-512.5c0-48.047-36.035-86.084-84.082-86.084h-684.669c-48.047 0-84.082 38.037-84.082 86.084v512.5c0 48.047 36.035 86.084 84.082 86.084h684.669z" />
<glyph unicode="&#xe064;" glyph-name="subscriptions" d="M682.667 164.65l-256.25 138.135v-278.272zM938.917 334.816v-342.334c0-46.045-38.037-84.082-84.082-84.082h-684.669c-46.045 0-84.082 38.037-84.082 84.082v342.334c0 46.045 38.037 86.084 84.082 86.084h684.669c46.045 0 84.082-40.039 84.082-86.084zM768.751 761.233v-84.082h-512.5v84.082h512.5zM854.835 504.982h-684.669v86.084h684.669v-86.084z" />
<glyph unicode="&#xe06c;" glyph-name="call_to_action" d="M896.876 36.525v128.125h-768.751v-128.125h768.751zM896.876 719.192c46.045 0 86.084-40.039 86.084-86.084v-596.583c0-46.045-40.039-86.084-86.084-86.084h-768.751c-46.045 0-86.084 40.039-86.084 86.084v596.583c0 46.045 40.039 86.084 86.084 86.084h768.751z" />
<glyph unicode="&#xe0e0;" glyph-name="import_contacts" d="M896.876 56.544v492.481c-46.045 14.014-98.096 20.020-150.147 20.020-72.070 0-176.172-28.027-234.229-64.063v-490.479c58.057 36.035 162.158 64.063 234.229 64.063 52.051 0 104.102-8.008 150.147-22.022zM746.729 655.129c88.495 0 181.675-22.097 236.231-64.063v-622.608c0-10.010-12.012-22.022-22.022-22.022-4.004 0-6.006 0-10.010 2.002-60.059 32.031-134.131 44.043-204.199 44.043-72.070 0-176.172-28.027-234.229-64.063-62.061 46.045-150.147 64.063-234.229 64.063-62.061 0-146.143-18.018-204.199-46.045-4.004 0-6.006-2.002-10.010-2.002-10.010 0-22.022 10.010-22.022 20.020v626.612c62.061 46.045 152.149 64.063 236.231 64.063s172.168-18.018 234.229-64.063c62.061 46.045 150.147 64.063 234.229 64.063z" />
<glyph unicode="&#xe0e1;" glyph-name="mail_outline" d="M512.5 376.857l342.334 214.209h-684.669zM854.835 78.566v426.416l-342.334-212.207-342.334 212.207v-426.416h684.669zM854.835 677.151c46.045 0 84.082-40.039 84.082-86.084v-512.5c0-46.045-38.037-86.084-84.082-86.084h-684.669c-46.045 0-84.082 40.039-84.082 86.084v512.5c0 46.045 38.037 86.084 84.082 86.084h684.669z" />
<glyph unicode="&#xe145;" glyph-name="add" d="M810.792 292.775h-256.25v-256.25h-84.082v256.25h-256.25v84.082h256.25v256.25h84.082v-256.25h256.25v-84.082z" />
<glyph unicode="&#xe146;" glyph-name="add_box" d="M726.71 292.775v84.082h-172.168v172.168h-84.082v-172.168h-172.168v-84.082h172.168v-172.168h84.082v172.168h172.168zM810.792 719.192c46.045 0 86.084-40.039 86.084-86.084v-596.583c0-46.045-40.039-86.084-86.084-86.084h-596.583c-48.047 0-86.084 40.039-86.084 86.084v596.583c0 46.045 38.037 86.084 86.084 86.084h596.583z" />
<glyph unicode="&#xe147;" glyph-name="add_circle" d="M726.71 292.775v84.082h-172.168v172.168h-84.082v-172.168h-172.168v-84.082h172.168v-172.168h84.082v172.168h172.168zM512.5 761.233c236.231 0 426.416-190.186 426.416-426.416s-190.186-426.416-426.416-426.416-426.416 190.186-426.416 426.416 190.186 426.416 426.416 426.416z" />
<glyph unicode="&#xe14d;" glyph-name="content_copy" d="M810.792-49.559v598.585h-468.457v-598.585h468.457zM810.792 633.108c46.045 0 86.084-38.037 86.084-84.082v-598.585c0-46.045-40.039-86.084-86.084-86.084h-468.457c-46.045 0-86.084 40.039-86.084 86.084v598.585c0 46.045 40.039 84.082 86.084 84.082h468.457zM682.667 805.276v-86.084h-512.5v-598.585h-84.082v598.585c0 46.045 38.037 86.084 84.082 86.084h512.5z" />
<glyph unicode="&#xe14e;" glyph-name="content_cut" d="M810.792 719.192h128.125v-42.041l-298.291-300.293-86.084 86.084zM512.5 312.795c12.012 0 22.022 10.010 22.022 22.022s-10.010 22.022-22.022 22.022-22.022-10.010-22.022-22.022 10.010-22.022 22.022-22.022zM256.25-7.518c46.045 0 86.084 38.037 86.084 86.084s-40.039 86.084-86.084 86.084-86.084-38.037-86.084-86.084 40.039-86.084 86.084-86.084zM256.25 504.982c46.045 0 86.084 38.037 86.084 86.084s-40.039 86.084-86.084 86.084-86.084-38.037-86.084-86.084 40.039-86.084 86.084-86.084zM412.403 520.998l526.514-528.516v-42.041h-128.125l-298.291 298.291-100.098-100.098c10.010-22.022 14.014-44.043 14.014-70.068 0-94.092-76.074-170.166-170.166-170.166s-170.166 76.074-170.166 170.166 76.074 170.166 170.166 170.166c26.025 0 48.047-4.004 70.068-14.014l100.098 100.098-100.098 100.098c-22.022-10.010-44.043-14.014-70.068-14.014-94.092 0-170.166 76.074-170.166 170.166s76.074 170.166 170.166 170.166 170.166-76.074 170.166-170.166c0-26.025-4.004-48.047-14.014-70.068z" />
<glyph unicode="&#xe14f;" glyph-name="content_paste" d="M810.792-7.518v684.669h-84.082v-128.125h-428.418v128.125h-84.082v-684.669h596.583zM512.5 761.233c-24.023 0-42.041-18.018-42.041-42.041s18.018-42.041 42.041-42.041 42.041 18.018 42.041 42.041-18.018 42.041-42.041 42.041zM810.792 761.233c46.045 0 86.084-38.037 86.084-84.082v-684.669c0-46.045-40.039-84.082-86.084-84.082h-596.583c-46.045 0-86.084 38.037-86.084 84.082v684.669c0 46.045 40.039 84.082 86.084 84.082h178.174c18.018 50.049 64.063 86.084 120.117 86.084s102.1-36.035 120.117-86.084h178.174z" />
<glyph unicode="&#xe151;" glyph-name="drafts" d="M512.5 292.775l352.344 220.215-352.344 206.201-352.344-206.201zM938.917 504.982v-426.416c0-46.045-38.037-86.084-84.082-86.084h-684.669c-46.045 0-84.082 40.039-84.082 86.084v426.416c0 30.029 16.016 60.059 40.039 74.072l386.377 226.221 386.377-226.221c24.023-14.014 40.039-44.043 40.039-74.072z" />
<glyph unicode="&#xe164;" glyph-name="sort" d="M128.125 292.775v84.082h512.5v-84.082h-512.5zM128.125 591.066h768.751v-86.084h-768.751v86.084zM128.125 78.566v86.084h256.25v-86.084h-256.25z" />
<glyph unicode="&#xe226;" glyph-name="attach_file" d="M704.688 591.066h64.063v-490.479c0-130.127-104.102-236.231-234.229-236.231s-236.231 106.104-236.231 236.231v532.52c0 94.092 78.076 172.168 172.168 172.168s170.166-78.076 170.166-172.168v-448.438c0-58.057-48.047-106.104-106.104-106.104s-108.106 48.047-108.106 106.104v406.397h64.063v-406.397c0-24.023 20.020-42.041 44.043-42.041s42.041 18.018 42.041 42.041v448.438c0 58.057-48.047 108.106-106.104 108.106s-108.106-50.049-108.106-108.106v-532.52c0-94.092 78.076-172.168 172.168-172.168s170.166 78.076 170.166 172.168v490.479z" />
<glyph unicode="&#xe22b;" glyph-name="border_color" d="M0-7.518h1025.001v-170.166h-1025.001v170.166zM884.864 675.149l-84.082-84.082-160.156 160.156 84.082 84.082c16.016 16.016 44.043 16.016 60.059 0l100.098-100.098c16.016-16.016 16.016-44.043 0-60.059zM758.741 549.025l-428.418-428.418h-160.156v160.156l428.418 428.418z" />
<glyph unicode="&#xe24f;" glyph-name="insert_invitation" d="M810.792 36.525v468.457h-596.583v-468.457h596.583zM682.667 805.276h86.084v-86.084h42.041c46.045 0 86.084-40.039 86.084-86.084v-596.583c0-46.045-40.039-86.084-86.084-86.084h-596.583c-48.047 0-86.084 40.039-86.084 86.084v596.583c0 46.045 38.037 86.084 86.084 86.084h42.041v86.084h86.084v-86.084h340.332v86.084zM726.71 334.816v-214.209h-214.209v214.209h214.209z" />
<glyph unicode="&#xe258;" glyph-name="vertical_align_bottom" d="M170.166 36.525h684.669v-86.084h-684.669v86.084zM682.667 292.775l-170.166-172.168-170.166 172.168h128.125v426.416h84.082v-426.416h128.125z" />
<glyph unicode="&#xe259;" glyph-name="vertical_align_center" d="M170.166 376.857h684.669v-84.082h-684.669v84.082zM682.667 633.108l-170.166-170.166-170.166 170.166h128.125v172.168h84.082v-172.168h128.125zM342.334 36.525l170.166 170.166 170.166-170.166h-128.125v-172.168h-84.082v172.168h-128.125z" />
<glyph unicode="&#xe25a;" glyph-name="vertical_align_top" d="M170.166 719.192h684.669v-86.084h-684.669v86.084zM342.334 376.857l170.166 172.168 170.166-172.168h-128.125v-426.416h-84.082v426.416h-128.125z" />
<glyph unicode="&#xe2bc;" glyph-name="attachment" d="M938.917 356.838c0-130.127-104.102-236.231-234.229-236.231h-448.438c-94.092 0-170.166 78.076-170.166 172.168s76.074 170.166 170.166 170.166h362.354c58.057 0 108.106-48.047 108.106-106.104s-50.049-108.106-108.106-108.106h-320.313v86.084h324.317c24.023 0 24.023 42.041 0 42.041h-366.358c-46.045 0-86.084-38.037-86.084-84.082s40.039-86.084 86.084-86.084h448.438c82.080 0 150.147 68.066 150.147 150.147s-68.066 148.145-150.147 148.145h-406.397v86.084h406.397c130.127 0 234.229-104.102 234.229-234.229z" />
<glyph unicode="&#xe2c6;" glyph-name="file_upload" d="M214.209 78.566h596.583v-86.084h-596.583v86.084zM384.375 164.65v256.25h-170.166l298.291 298.291 298.291-298.291h-170.166v-256.25h-256.25z" />
<glyph unicode="&#xe2cc;" glyph-name="create_new_folder" d="M810.792 248.732v86.084h-128.125v128.125h-84.082v-128.125h-128.125v-86.084h128.125v-128.125h84.082v128.125h128.125zM854.835 591.066c48.047 0 84.082-38.037 84.082-86.084v-426.416c0-48.047-36.035-86.084-84.082-86.084h-684.669c-48.047 0-84.082 38.037-84.082 86.084v512.5c0 48.047 36.035 86.084 84.082 86.084h256.25l86.084-86.084h342.334z" />
<glyph unicode="&#xe313;" glyph-name="keyboard_arrow_down" d="M316.309 512.99l196.192-196.192 196.192 196.192 60.059-60.059-256.25-256.25-256.25 256.25z" />
<glyph unicode="&#xe314;" glyph-name="keyboard_arrow_left" d="M658.643 160.646l-60.059-60.059-256.25 256.25 256.25 256.25 60.059-60.059-196.192-196.192z" />
<glyph unicode="&#xe315;" glyph-name="keyboard_arrow_right" d="M366.358 148.634l196.192 196.192-196.192 196.192 60.059 60.059 256.25-256.25-256.25-256.25z" />
<glyph unicode="&#xe316;" glyph-name="keyboard_arrow_up" d="M316.309 188.674l-60.059 60.059 256.25 256.25 256.25-256.25-60.059-60.059-196.192 196.192z" />
<glyph unicode="&#xe324;" glyph-name="phone_android" d="M736.719 78.566v598.585h-448.438v-598.585h448.438zM598.585-49.559v42.041h-172.168v-42.041h172.168zM682.667 805.276c70.068 0 128.125-58.057 128.125-128.125v-684.669c0-70.068-58.057-128.125-128.125-128.125h-340.332c-70.068 0-128.125 58.057-128.125 128.125v684.669c0 70.068 58.057 128.125 128.125 128.125h340.332z" />
<glyph unicode="&#xe32a;" glyph-name="security" d="M512.5 805.276l384.375-172.168v-256.25c0-236.231-164.16-458.448-384.375-512.5-220.215 54.053-384.375 276.27-384.375 512.5v256.25zM512.5 334.816v-382.373c158.154 50.049 276.27 206.201 298.291 382.373h-298.291zM512.5 334.816v376.368l-298.291-132.129v-244.239h298.291z" />
<glyph unicode="&#xe3ba;" glyph-name="control_point" d="M512.5-7.518c188.184 0 342.334 154.151 342.334 342.334s-154.151 342.334-342.334 342.334-342.334-154.151-342.334-342.334 154.151-342.334 342.334-342.334zM512.5 761.233c236.231 0 426.416-190.186 426.416-426.416s-190.186-426.416-426.416-426.416-426.416 190.186-426.416 426.416 190.186 426.416 426.416 426.416zM554.542 549.025v-172.168h172.168v-84.082h-172.168v-172.168h-84.082v172.168h-172.168v84.082h172.168v172.168h84.082z" />
<glyph unicode="&#xe402;" glyph-name="loupe" d="M512.5-7.518c188.184 0 342.334 154.151 342.334 342.334s-154.151 342.334-342.334 342.334-342.334-154.151-342.334-342.334 154.151-342.334 342.334-342.334zM512.5 761.233c236.231 0 426.416-190.186 426.416-426.416v-342.334c0-46.045-38.037-84.082-84.082-84.082h-342.334c-236.231 0-426.416 190.186-426.416 426.416s190.186 426.416 426.416 426.416zM554.542 549.025v-172.168h172.168v-84.082h-172.168v-172.168h-84.082v172.168h-172.168v84.082h172.168v172.168h84.082z" />
<glyph unicode="&#xe439;" glyph-name="add_a_photo" d="M418.409 248.732c0 76.074 60.059 138.135 136.133 138.135s138.135-62.061 138.135-138.135-62.061-136.133-138.135-136.133-136.133 60.059-136.133 136.133zM554.542 36.525c118.115 0 214.209 94.092 214.209 212.207s-96.094 214.209-214.209 214.209-212.207-96.094-212.207-214.209 94.092-212.207 212.207-212.207zM256.25 420.9v128.125h128.125v128.125h298.291l78.076-86.084h136.133c46.045 0 86.084-40.039 86.084-86.084v-512.5c0-46.045-40.039-84.082-86.084-84.082h-682.667c-46.045 0-86.084 38.037-86.084 84.082v428.418h128.125zM128.125 677.151v128.125h86.084v-128.125h128.125v-86.084h-128.125v-128.125h-86.084v128.125h-128.125v86.084h128.125z" />
<glyph unicode="&#xe55b;" glyph-name="map2" d="M640.626 36.525v506.495l-256.25 90.088v-506.495zM874.854 719.192c12.012 0 22.022-10.010 22.022-22.022v-644.63c0-10.010-8.008-18.018-16.016-20.020l-240.235-82.080-256.25 90.088-228.223-88.086-6.006-2.002c-12.012 0-22.022 10.010-22.022 22.022v644.63c0 10.010 8.008 18.018 16.016 20.020l240.235 82.080 256.25-90.088 228.223 88.086z" />
<glyph unicode="&#xe56f;" glyph-name="subway" d="M768.751 168.654v294.287c0 112.109-114.111 128.125-256.25 128.125-128.125 0-256.25-16.016-256.25-128.125v-294.287c0-62.061 50.049-112.109 112.109-112.109l-48.047-48.047v-16.016h72.070l64.063 64.063h120.117l64.063-64.063h64.063v16.016l-48.047 48.047c62.061 0 112.109 50.049 112.109 112.109zM760.743 727.199c114.111-44.043 178.174-138.135 178.174-258.252v-560.547h-852.833v560.547c0 120.117 64.063 214.209 178.174 258.252 76.074 30.029 168.164 34.033 248.242 34.033s172.168-4.004 248.242-34.033zM300.293 462.941h426.416v-214.209h-426.416v214.209zM320.313 164.65c0 24.023 18.018 42.041 42.041 42.041s44.043-18.018 44.043-42.041-20.020-44.043-44.043-44.043-42.041 20.020-42.041 44.043zM618.604 164.65c0 24.023 20.020 42.041 44.043 42.041s42.041-18.018 42.041-42.041-18.018-44.043-42.041-44.043-44.043 20.020-44.043 44.043z" />
<glyph unicode="&#xe5c4;" glyph-name="arrow_back" d="M854.835 376.857v-84.082h-520.508l238.233-240.235-60.059-60.059-342.334 342.334 342.334 342.334 60.059-60.059-238.233-240.235h520.508z" />
<glyph unicode="&#xe5c5;" glyph-name="arrow_drop_down" d="M298.291 420.9h428.418l-214.209-214.209z" />
<glyph unicode="&#xe5c6;" glyph-name="arrow_drop_down_circle" d="M512.5 248.732l170.166 172.168h-340.332zM512.5 761.233c236.231 0 426.416-190.186 426.416-426.416s-190.186-426.416-426.416-426.416-426.416 190.186-426.416 426.416 190.186 426.416 426.416 426.416z" />
<glyph unicode="&#xe5c7;" glyph-name="arrow_drop_up" d="M298.291 248.732l214.209 214.209 214.209-214.209h-428.418z" />
<glyph unicode="&#xe5c8;" glyph-name="arrow_forward" d="M512.5 677.151l342.334-342.334-342.334-342.334-60.059 60.059 238.233 240.235h-520.508v84.082h520.508l-238.233 240.235z" />
<glyph unicode="&#xe5c9;" glyph-name="cancel" d="M726.71 180.666l-154.151 154.151 154.151 154.151-60.059 60.059-154.151-154.151-154.151 154.151-60.059-60.059 154.151-154.151-154.151-154.151 60.059-60.059 154.151 154.151 154.151-154.151zM512.5 761.233c236.231 0 426.416-190.186 426.416-426.416s-190.186-426.416-426.416-426.416-426.416 190.186-426.416 426.416 190.186 426.416 426.416 426.416z" />
<glyph unicode="&#xe5ca;" glyph-name="check" d="M384.375 156.642l452.442 452.442 60.059-60.059-512.5-512.5-238.233 238.233 60.059 60.059z" />
<glyph unicode="&#xe5cd;" glyph-name="close2" d="M810.792 573.049l-238.233-238.233 238.233-238.233-60.059-60.059-238.233 238.233-238.233-238.233-60.059 60.059 238.233 238.233-238.233 238.233 60.059 60.059 238.233-238.233 238.233 238.233z" />
<glyph unicode="&#xe5d7;" glyph-name="unfold_more" d="M512.5 70.558l136.133 136.133 60.059-60.059-196.192-196.192-196.192 196.192 60.059 60.059zM512.5 599.074l-136.133-136.133-60.059 60.059 196.192 196.192 196.192-196.192-60.059-60.059z" />
<glyph unicode="&#xe5d8;" glyph-name="arrow_upward" d="M170.166 334.816l342.334 342.334 342.334-342.334-62.061-60.059-238.233 238.233v-520.508h-84.082v520.508l-240.235-238.233z" />
<glyph unicode="&#xe5da;" glyph-name="subdirectory_arrow_right" d="M810.792 206.691l-256.25-256.25-60.059 60.059 154.151 154.151h-478.467v512.5h86.084v-428.418h392.383l-154.151 154.151 60.059 60.059z" />
<glyph unicode="&#xe5db;" glyph-name="arrow_downward" d="M854.835 334.816l-342.334-342.334-342.334 342.334 62.061 60.059 238.233-238.233v520.508h84.082v-520.508l240.235 238.233z" />
<glyph unicode="&#xe60e;" glyph-name="adb" d="M640.626 462.941c24.023 0 42.041 18.018 42.041 42.041s-18.018 44.043-42.041 44.043-42.041-20.020-42.041-44.043 18.018-42.041 42.041-42.041zM384.375 462.941c24.023 0 42.041 18.018 42.041 42.041s-18.018 44.043-42.041 44.043-42.041-20.020-42.041-44.043 18.018-42.041 42.041-42.041zM688.673 661.135c74.072-54.053 122.119-142.139 122.119-240.235v-44.043h-596.583v44.043c0 98.096 48.047 186.182 122.119 240.235l-90.088 90.088 36.035 34.033 98.096-98.096c40.039 20.020 84.082 32.031 132.129 32.031s92.090-12.012 132.129-32.031l98.096 98.096 36.035-34.033zM214.209 164.65v170.166h596.583v-170.166c0-166.162-132.129-300.293-298.291-300.293s-298.291 134.131-298.291 300.293z" />
<glyph unicode="&#xe611;" glyph-name="do_not_disturb_alt" d="M512.5-7.518c188.184 0 342.334 154.151 342.334 342.334 0 76.074-28.027 150.147-74.072 210.205l-478.467-478.467c60.059-46.045 134.131-74.072 210.205-74.072zM170.166 334.816c0-76.074 28.027-150.147 74.072-210.205l478.467 478.467c-60.059 46.045-134.131 74.072-210.205 74.072-188.184 0-342.334-154.151-342.334-342.334zM512.5 761.233c234.229 0 426.416-192.188 426.416-426.416s-192.188-426.416-426.416-426.416-426.416 192.188-426.416 426.416 192.188 426.416 426.416 426.416z" />
<glyph unicode="&#xe614;" glyph-name="event_available" d="M810.792 36.525v468.457h-596.583v-468.457h596.583zM810.792 719.192c46.045 0 86.084-40.039 86.084-86.084v-596.583c0-46.045-40.039-86.084-86.084-86.084h-596.583c-48.047 0-86.084 40.039-86.084 86.084v596.583c0 46.045 38.037 86.084 86.084 86.084h42.041v86.084h86.084v-86.084h340.332v86.084h86.084v-86.084h42.041zM706.69 374.855l-254.248-254.248-136.133 136.133 46.045 46.045 90.088-90.088 208.203 208.203z" />
<glyph unicode="&#xe615;" glyph-name="event_busy" d="M810.792 36.525v468.457h-596.583v-468.457h596.583zM810.792 719.192c46.045 0 86.084-40.039 86.084-86.084v-596.583c0-46.045-40.039-86.084-86.084-86.084h-596.583c-48.047 0-86.084 40.039-86.084 86.084v596.583c0 46.045 38.037 86.084 86.084 86.084h42.041v86.084h86.084v-86.084h340.332v86.084h86.084v-86.084h42.041zM398.389 120.607l-46.045 46.045 104.102 104.102-104.102 104.102 46.045 46.045 104.102-104.102 104.102 104.102 44.043-46.045-104.102-104.102 104.102-104.102-44.043-46.045-104.102 104.102z" />
<glyph unicode="&#xe616;" glyph-name="event_note" d="M598.585 248.732v-84.082h-300.293v84.082h300.293zM810.792 36.525v468.457h-596.583v-468.457h596.583zM810.792 719.192c46.045 0 86.084-40.039 86.084-86.084v-596.583c0-46.045-40.039-86.084-86.084-86.084h-596.583c-48.047 0-86.084 40.039-86.084 86.084v596.583c0 46.045 38.037 86.084 86.084 86.084h42.041v86.084h86.084v-86.084h340.332v86.084h86.084v-86.084h42.041zM726.71 420.9v-86.084h-428.418v86.084h428.418z" />
<glyph unicode="&#xe63b;" glyph-name="personal_video" d="M896.876 120.607v512.5h-768.751v-512.5h768.751zM896.876 719.192c46.045 0 86.084-38.037 86.084-86.084l-2.002-512.5c0-46.045-38.037-84.082-84.082-84.082h-214.209v-86.084h-340.332v86.084h-214.209c-48.047 0-86.084 38.037-86.084 84.082v512.5c0 48.047 38.037 86.084 86.084 86.084h768.751z" />
<glyph unicode="&#xe7f5;" glyph-name="notifications_none" d="M682 127.333v256c0 106-64 192-170 192s-170-86-170-192v-256h340zM768 171.333l86-86v-42h-684v42l86 86v212c0 132 70 240 192 270v30c0 36 28 64 64 64s64-28 64-64v-30c122-30 192-140 192-270v-212zM512-84.667c-46 0-86 38-86 84h172c0-46-40-84-86-84z" />
<glyph unicode="&#xe7fb;" glyph-name="people" d="M682.667 292.775c100.098 0 300.293-50.049 300.293-150.147v-106.104h-256.25v106.104c0 64.063-34.033 112.109-84.082 148.145 14.014 2.002 28.027 2.002 40.039 2.002zM342.334 292.775c100.098 0 298.291-50.049 298.291-150.147v-106.104h-598.585v106.104c0 100.098 200.196 150.147 300.293 150.147zM342.334 376.857c-70.068 0-128.125 58.057-128.125 128.125s58.057 128.125 128.125 128.125 126.123-58.057 126.123-128.125-56.055-128.125-126.123-128.125zM682.667 376.857c-70.068 0-128.125 58.057-128.125 128.125s58.057 128.125 128.125 128.125 128.125-58.057 128.125-128.125-58.057-128.125-128.125-128.125z" />
<glyph unicode="&#xe7fc;" glyph-name="people_outline" d="M704.688 569.045c-46.045 0-86.084-38.037-86.084-84.082s40.039-86.084 86.084-86.084 86.084 40.039 86.084 86.084-40.039 84.082-86.084 84.082zM704.688 334.816c-82.080 0-150.147 68.066-150.147 150.147s68.066 148.145 150.147 148.145 150.147-66.065 150.147-148.145-68.066-150.147-150.147-150.147zM320.313 569.045c-46.045 0-86.084-38.037-86.084-84.082s40.039-86.084 86.084-86.084 86.084 40.039 86.084 86.084-40.039 84.082-86.084 84.082zM320.313 334.816c-82.080 0-150.147 68.066-150.147 150.147s68.066 148.145 150.147 148.145 150.147-66.065 150.147-148.145-68.066-150.147-150.147-150.147zM918.897 100.587v52.051c0 24.023-110.108 76.074-214.209 76.074-46.045 0-90.088-12.012-128.125-24.023 14.014-16.016 22.022-32.031 22.022-52.051v-52.051h320.313zM534.522 100.587v52.051c0 24.023-110.108 76.074-214.209 76.074s-214.209-52.051-214.209-76.074v-52.051h428.418zM704.688 292.775c92.090 0 278.272-48.047 278.272-140.137v-116.113h-940.919v116.113c0 92.090 186.182 140.137 278.272 140.137 52.051 0 130.127-16.016 192.188-44.043 62.061 28.027 140.137 44.043 192.188 44.043z" />
<glyph unicode="&#xe7fd;" glyph-name="person" d="M512.5 248.732c114.111 0 342.334-56.055 342.334-170.166v-86.084h-684.669v86.084c0 114.111 228.223 170.166 342.334 170.166zM512.5 334.816c-94.092 0-170.166 76.074-170.166 170.166s76.074 172.168 170.166 172.168 170.166-78.076 170.166-172.168-76.074-170.166-170.166-170.166z" />
<glyph unicode="&#xe7fe;" glyph-name="person_add" d="M640.626 248.732c114.111 0 342.334-56.055 342.334-170.166v-86.084h-684.669v86.084c0 114.111 228.223 170.166 342.334 170.166zM256.25 420.9h128.125v-86.084h-128.125v-128.125h-86.084v128.125h-128.125v86.084h128.125v128.125h86.084v-128.125zM640.626 334.816c-94.092 0-170.166 76.074-170.166 170.166s76.074 172.168 170.166 172.168 170.166-78.076 170.166-172.168-76.074-170.166-170.166-170.166z" />
<glyph unicode="&#xe7ff;" glyph-name="person_outline" d="M512.5 292.775c114.111 0 342.334-58.057 342.334-172.168v-128.125h-684.669v128.125c0 114.111 228.223 172.168 342.334 172.168zM512.5 677.151c94.092 0 170.166-78.076 170.166-172.168s-76.074-170.166-170.166-170.166-170.166 76.074-170.166 170.166 76.074 172.168 170.166 172.168zM512.5 210.695c-126.123 0-260.254-62.061-260.254-90.088v-46.045h520.508v46.045c0 28.027-134.131 90.088-260.254 90.088zM512.5 595.070c-50.049 0-90.088-40.039-90.088-90.088s40.039-88.086 90.088-88.086 90.088 38.037 90.088 88.086-40.039 90.088-90.088 90.088z" />
<glyph unicode="&#xe80b;" glyph-name="public" d="M764.747 104.591c56.055 60.059 90.088 142.139 90.088 230.225 0 142.139-88.086 266.26-214.209 316.309v-18.018c0-46.045-40.039-84.082-86.084-84.082h-84.082v-86.084c0-24.023-20.020-42.041-44.043-42.041h-84.082v-86.084h256.25c24.023 0 42.041-18.018 42.041-42.041v-128.125h42.041c38.037 0 70.068-26.025 82.080-60.059zM470.459-3.514v82.080c-46.045 0-86.084 40.039-86.084 86.084v42.041l-204.199 204.199c-6.006-24.023-10.010-50.049-10.010-76.074 0-174.17 132.129-318.311 300.293-338.33zM512.5 761.233c236.231 0 426.416-190.186 426.416-426.416s-190.186-426.416-426.416-426.416-426.416 190.186-426.416 426.416 190.186 426.416 426.416 426.416z" />
<glyph unicode="&#xe810;" glyph-name="Nav-Account" d="M386.987-160.003c-2.174 0-4.378 0.27-6.573 0.835-47.387 12.166-92.915 30.963-135.319 55.873-12.289 7.218-16.625 22.892-9.792 35.398 8.4 15.383 12.841 32.844 12.841 50.495 0 58.196-47.346 105.542-105.542 105.542-17.651 0-35.111-4.441-50.495-12.841-12.505-6.83-28.178-2.495-35.396 9.792-24.912 42.404-43.709 87.933-55.875 135.321-3.435 13.388 4.040 27.158 17.139 31.569 42.979 14.468 71.856 54.662 71.856 100.015s-28.877 85.547-71.857 100.018c-13.096 4.409-20.575 18.179-17.137 31.567 12.166 47.387 30.963 92.915 55.875 135.319 7.218 12.289 22.892 16.625 35.398 9.792 15.381-8.4 32.842-12.841 50.493-12.841 58.196 0 105.542 47.346 105.542 105.542 0 17.652-4.441 35.112-12.841 50.493-6.832 12.506-2.496 28.18 9.792 35.398 42.403 24.91 87.932 43.709 135.319 55.875 13.393 3.436 27.158-4.040 31.567-17.137 14.471-42.981 54.665-71.857 100.018-71.857s85.547 28.877 100.016 71.856c4.411 13.1 18.186 20.578 31.569 17.139 47.387-12.165 92.916-30.963 135.321-55.875 12.288-7.218 16.623-22.89 9.792-35.396-8.402-15.384-12.843-32.845-12.843-50.495 0-58.196 47.346-105.542 105.542-105.542 17.652 0 35.112 4.441 50.495 12.841 12.511 6.832 28.18 2.495 35.398-9.792 24.908-42.403 43.707-87.932 55.873-135.319 3.436-13.388-4.038-27.158-17.137-31.567-42.981-14.471-71.857-54.665-71.857-100.018s28.877-85.547 71.857-100.016c13.096-4.411 20.575-18.179 17.137-31.569-12.166-47.387-30.963-92.916-55.873-135.319-7.22-12.291-22.89-16.623-35.398-9.793-15.384 8.402-32.845 12.843-50.495 12.843-58.196 0-105.542-47.346-105.542-105.542 0-17.651 4.441-35.111 12.843-50.495 6.83-12.509 2.495-28.18-9.793-35.398-42.403-24.908-87.932-43.707-135.319-55.873-13.391-3.438-27.158 4.038-31.569 17.137-14.469 42.981-54.663 71.857-100.016 71.857s-85.547-28.877-100.018-71.857c-3.687-10.95-13.916-17.972-24.994-17.972zM511.998-17.401c59.486 0 113.059-33.124 140.088-84.546 27.454 8.47 54.118 19.454 79.671 32.823-5.711 16.571-8.674 34.090-8.674 51.722 0 87.295 71.018 158.313 158.313 158.313 17.632 0 35.152-2.963 51.721-8.676 13.369 25.553 24.355 52.217 32.823 79.671-51.421 27.031-84.544 80.602-84.544 140.089s33.124 113.057 84.546 140.089c-8.47 27.454-19.454 54.117-32.823 79.671-16.571-5.712-34.089-8.676-51.722-8.676-87.295 0-158.313 71.018-158.313 158.313 0 17.632 2.963 35.152 8.676 51.721-25.553 13.369-52.217 24.355-79.671 32.823-27.031-51.421-80.602-84.544-140.089-84.544s-113.057 33.124-140.088 84.544c-27.454-8.468-54.118-19.453-79.671-32.823 5.712-16.569 8.674-34.087 8.674-51.721 0-87.295-71.018-158.313-158.313-158.313-17.634 0-35.152 2.962-51.721 8.676-13.371-25.555-24.355-52.217-32.823-79.671 51.421-27.032 84.544-80.602 84.544-140.089s-33.124-113.059-84.544-140.088c8.468-27.454 19.454-54.118 32.823-79.671 16.569 5.711 34.089 8.674 51.721 8.674 87.295 0 158.313-71.018 158.313-158.313 0-17.634-2.963-35.152-8.676-51.721 25.555-13.369 52.217-24.355 79.671-32.823 27.032 51.421 80.602 84.544 140.089 84.544zM511.998 193.687c-87.295 0-158.313 71.018-158.313 158.313s71.018 158.313 158.313 158.313 158.313-71.018 158.313-158.313-71.018-158.313-158.313-158.313zM511.998 457.542c-58.196 0-105.542-47.346-105.542-105.542s47.346-105.542 105.542-105.542c58.196 0 105.542 47.346 105.542 105.542s-47.346 105.542-105.542 105.542z" />
<glyph unicode="&#xe811;" glyph-name="sentiment_dissatisfied" d="M512.5 248.732c100.098 0 184.18-60.059 218.213-148.145h-70.068c-30.029 50.049-84.082 84.082-148.145 84.082s-118.115-34.033-148.145-84.082h-70.068c34.033 88.086 118.115 148.145 218.213 148.145zM512.5-7.518c188.184 0 342.334 154.151 342.334 342.334s-154.151 342.334-342.334 342.334-342.334-154.151-342.334-342.334 154.151-342.334 342.334-342.334zM512.5 761.233c236.231 0 426.416-190.186 426.416-426.416s-190.186-426.416-426.416-426.416-426.416 190.186-426.416 426.416 190.186 426.416 426.416 426.416zM298.291 440.92c0 36.035 28.027 64.063 64.063 64.063s64.063-28.027 64.063-64.063-28.027-64.063-64.063-64.063-64.063 28.027-64.063 64.063zM598.585 440.92c0 36.035 28.027 64.063 64.063 64.063s64.063-28.027 64.063-64.063-28.027-64.063-64.063-64.063-64.063 28.027-64.063 64.063z" />
<glyph unicode="&#xe812;" glyph-name="sentiment_neutral" d="M512.5-7.518c188.184 0 342.334 154.151 342.334 342.334s-154.151 342.334-342.334 342.334-342.334-154.151-342.334-342.334 154.151-342.334 342.334-342.334zM512.5 761.233c236.231 0 426.416-190.186 426.416-426.416s-190.186-426.416-426.416-426.416-426.416 190.186-426.416 426.416 190.186 426.416 426.416 426.416zM298.291 440.92c0 36.035 28.027 64.063 64.063 64.063s64.063-28.027 64.063-64.063-28.027-64.063-64.063-64.063-64.063 28.027-64.063 64.063zM598.585 440.92c0 36.035 28.027 64.063 64.063 64.063s64.063-28.027 64.063-64.063-28.027-64.063-64.063-64.063-64.063 28.027-64.063 64.063zM384.375 248.732h256.25v-64.063h-256.25v64.063z" />
<glyph unicode="&#xe813;" glyph-name="sentiment_satisfied" d="M512.5 164.65c64.063 0 118.115 34.033 148.145 84.082h70.068c-34.033-88.086-118.115-148.145-218.213-148.145s-184.18 60.059-218.213 148.145h70.068c30.029-50.049 84.082-84.082 148.145-84.082zM512.5-7.518c188.184 0 342.334 154.151 342.334 342.334s-154.151 342.334-342.334 342.334-342.334-154.151-342.334-342.334 154.151-342.334 342.334-342.334zM512.5 761.233c236.231 0 426.416-190.186 426.416-426.416s-190.186-426.416-426.416-426.416-426.416 190.186-426.416 426.416 190.186 426.416 426.416 426.416zM298.291 440.92c0 36.035 28.027 64.063 64.063 64.063s64.063-28.027 64.063-64.063-28.027-64.063-64.063-64.063-64.063 28.027-64.063 64.063zM598.585 440.92c0 36.035 28.027 64.063 64.063 64.063s64.063-28.027 64.063-64.063-28.027-64.063-64.063-64.063-64.063 28.027-64.063 64.063z" />
<glyph unicode="&#xe814;" glyph-name="sentiment_very_dissatisfied" d="M512.5 248.732c100.098 0 184.18-60.059 218.213-148.145h-436.426c34.033 88.086 118.115 148.145 218.213 148.145zM334.326 334.816l-46.045 46.045 46.045 44.043-46.045 46.045 46.045 44.043 44.043-44.043 46.045 44.043 46.045-44.043-46.045-46.045 46.045-44.043-46.045-46.045-46.045 46.045zM690.674 514.992l46.045-44.043-46.045-46.045 46.045-44.043-46.045-46.045-44.043 46.045-46.045-46.045-46.045 46.045 46.045 44.043-46.045 46.045 46.045 44.043 46.045-44.043zM512.5-7.518c188.184 0 342.334 154.151 342.334 342.334s-154.151 342.334-342.334 342.334-342.334-154.151-342.334-342.334 154.151-342.334 342.334-342.334zM512.5 761.233c236.231 0 426.416-190.186 426.416-426.416s-190.186-426.416-426.416-426.416-426.416 190.186-426.416 426.416 190.186 426.416 426.416 426.416z" />
<glyph unicode="&#xe815;" glyph-name="sentiment_very_satisfied" d="M512.5 100.587c-100.098 0-184.18 60.059-218.213 148.145h436.426c-34.033-88.086-118.115-148.145-218.213-148.145zM378.37 422.902l-44.043-46.045-46.045 46.045 90.088 90.088 92.090-90.088-46.045-46.045zM554.542 422.902l92.090 90.088 90.088-90.088-46.045-46.045-44.043 46.045-46.045-46.045zM512.5-7.518c188.184 0 342.334 154.151 342.334 342.334s-154.151 342.334-342.334 342.334-342.334-154.151-342.334-342.334 154.151-342.334 342.334-342.334zM512.5 761.233c236.231 0 426.416-190.186 426.416-426.416s-190.186-426.416-426.416-426.416-426.416 190.186-426.416 426.416 190.186 426.416 426.416 426.416z" />
<glyph unicode="&#xe82b;" glyph-name="Nav-Customers" d="M947.199-31.999h-563.2c-42.347 0-76.8 34.453-76.8 76.8 0 2.461 0.538 60.952 47.331 118.544 26.883 33.088 63.541 59.31 108.952 77.941 54.856 22.504 122.858 33.915 202.117 33.915s147.261-11.411 202.117-33.915c45.411-18.63 82.067-44.853 108.952-77.941 46.794-57.592 47.331-116.082 47.331-118.544 0-42.347-34.453-76.8-76.8-76.8zM358.399 44.669c0.072-14.056 11.528-25.469 25.6-25.469h563.2c14.072 0 25.528 11.413 25.6 25.469-0.048 1.786-1.656 45.802-37.851 88.786-49.88 59.235-143.019 90.546-269.348 90.546s-219.469-31.31-269.348-90.546c-36.194-42.984-37.803-87-37.851-88.786zM665.6 326.4c-112.926 0-204.8 91.874-204.8 204.8 0 112.928 91.874 204.8 204.8 204.8s204.8-91.872 204.8-204.8c0-112.926-91.874-204.8-204.8-204.8zM665.6 684.799c-84.696 0-153.6-68.904-153.6-153.6s68.904-153.6 153.6-153.6 153.6 68.904 153.6 153.6-68.904 153.6-153.6 153.6zM230.4-31.999h-153.6c-42.347 0-76.8 34.451-76.8 76.8 0 1.915 0.386 47.446 33.92 92.16 19.373 25.832 45.778 46.299 78.483 60.833 39.126 17.389 87.437 26.206 143.596 26.206 9.16 0 18.232-0.235 26.962-0.701 14.118-0.754 24.954-12.81 24.2-26.928s-12.78-24.96-26.928-24.2c-7.826 0.418-15.979 0.629-24.234 0.629-199.366 0-204.666-121.826-204.8-128.131 0.072-14.054 11.528-25.469 25.6-25.469h153.6c14.138 0 25.6-11.461 25.6-25.6s-11.462-25.6-25.6-25.6zM255.999 275.2c-84.696 0-153.6 68.904-153.6 153.6s68.904 153.6 153.6 153.6 153.6-68.904 153.6-153.6-68.904-153.6-153.6-153.6zM255.999 531.2c-56.464 0-102.4-45.936-102.4-102.4s45.936-102.4 102.4-102.4 102.4 45.936 102.4 102.4c0 56.464-45.936 102.4-102.4 102.4z" />
<glyph unicode="&#xe834;" glyph-name="check_box" d="M426.416 120.607l384.375 384.375-60.059 62.061-324.317-324.317-152.149 152.149-60.059-60.059zM810.792 719.192c48.047 0 86.084-40.039 86.084-86.084v-596.583c0-46.045-38.037-86.084-86.084-86.084h-596.583c-48.047 0-86.084 40.039-86.084 86.084v596.583c0 46.045 38.037 86.084 86.084 86.084h596.583z" />
<glyph unicode="&#xe835;" glyph-name="check_box_outline_blank" d="M810.792 719.192c46.045 0 86.084-40.039 86.084-86.084v-596.583c0-46.045-40.039-86.084-86.084-86.084h-596.583c-46.045 0-86.084 40.039-86.084 86.084v596.583c0 46.045 40.039 86.084 86.084 86.084h596.583zM810.792 633.108h-596.583v-596.583h596.583v596.583z" />
<glyph unicode="&#xe842;" glyph-name="pie-chart" d="M435.625-160.601c-116.36 0-225.754 45.313-308.034 127.592s-127.592 191.675-127.592 308.034c0 116.36 45.313 225.754 127.592 308.034s191.673 127.592 308.034 127.592c14.152 0 25.625-11.473 25.625-25.625v-384.375h384.375c14.153 0 25.625-11.472 25.625-25.625 0-116.359-45.313-225.754-127.592-308.034s-191.675-127.592-308.034-127.592zM410 658.556c-200.037-13.239-358.75-180.202-358.75-383.532 0-211.946 172.43-384.375 384.375-384.375 203.33 0 370.293 158.713 383.532 358.75h-383.532c-14.152 0-25.625 11.472-25.625 25.625v383.532zM948.126 351.9h-410c-14.153 0-25.625 11.473-25.625 25.625v410c0 14.152 11.472 25.625 25.625 25.625 116.359 0 225.754-45.313 308.034-127.592s127.592-191.673 127.592-308.034c0-14.152-11.472-25.625-25.625-25.625zM563.751 403.15h357.907c-12.676 191.561-166.346 345.228-357.907 357.907v-357.907z" />
<glyph unicode="&#xe84b;" glyph-name="rocket" d="M691.876 403.15c-70.648 0-128.125 57.477-128.125 128.125s57.477 128.125 128.125 128.125 128.125-57.477 128.125-128.125-57.477-128.125-128.125-128.125zM691.876 608.15c-42.388 0-76.875-34.487-76.875-76.875s34.487-76.875 76.875-76.875 76.875 34.487 76.875 76.875-34.487 76.875-76.875 76.875zM25.628-160.601c-6.682 0-13.232 2.616-18.124 7.506-7.041 7.041-9.364 17.519-5.963 26.876 78.858 216.86 161.771 326.818 246.436 326.818 27.91 0 54.032-11.972 77.642-35.581 37.319-37.319 38.649-74.467 33.194-99.057-17.142-77.262-126.294-152.971-324.432-225.022-2.856-1.039-5.819-1.543-8.755-1.543zM247.978 149.348c-25.379 0-55.244-22.236-86.366-64.3-30.608-41.37-61.334-100.303-91.614-175.649 68.419 27.505 123.423 55.433 163.966 83.286 54.701 37.579 70.877 66.627 74.815 84.376 3.948 17.796-2.397 34.716-19.401 51.718-13.84 13.84-27.381 20.567-41.4 20.567zM999.376 864.4c-132.978 0-251.502-22.556-352.283-67.046-83.078-36.674-154.226-88.161-211.465-153.031-10.684-12.11-20.572-24.358-29.72-36.622-44.185-2.945-89.362-20.49-134.493-52.272-38.167-26.877-76.534-64.077-114.034-110.566-63.027-78.13-101.805-155.139-103.426-158.381-5.61-11.222-2.252-24.838 7.912-32.197 4.505-3.261 9.768-4.861 15.007-4.861 6.579 0 13.122 2.522 18.082 7.441 0.243 0.24 24.738 24.323 66.534 47.973 34.444 19.493 87.546 42.377 151.761 46.429 16.235-41.582 62.723-91.27 85.037-113.581 22.313-22.313 72.001-68.801 113.583-85.038-4.050-64.215-26.936-117.317-46.427-151.759-23.652-41.798-47.733-66.292-47.937-66.497-8.887-8.887-10.016-22.907-2.669-33.102 4.957-6.877 12.782-10.644 20.802-10.644 3.871 0 7.787 0.878 11.445 2.707 3.24 1.621 80.248 40.399 158.381 103.426 46.488 37.501 83.688 75.868 110.566 114.033 31.781 45.132 49.326 90.309 52.272 134.494 12.263 9.148 24.514 19.038 36.622 29.722 64.869 57.237 116.357 128.384 153.032 211.465 44.486 100.78 67.044 219.305 67.044 352.283v25.625h-25.625zM159.258 361.722c48.845 70.869 123.505 158.75 207.649 186.414-33.254-58.26-50.471-111.8-56.666-145.697-59.381-3.63-110.575-20.91-150.982-40.717zM522.38-1.226c19.781 40.389 37.031 91.542 40.659 150.865 33.892 6.193 87.421 23.407 145.67 56.652-27.685-84.002-115.494-158.645-186.329-207.518zM771.015 313.457c-106.584-94.044-217.006-115.308-232.889-115.308-0.102 0-10.591 0.23-38.905 20.156-19.747 13.897-42.724 33.651-64.693 55.62-21.971 21.971-41.724 44.946-55.62 64.695-19.925 28.313-20.156 38.801-20.156 38.904 0 15.885 21.264 126.305 115.31 232.889 112.526 127.531 284.811 197.252 499.382 202.425-5.175-214.568-74.895-386.855-202.427-499.382z" />
<glyph unicode="&#xe851;" glyph-name="account_box" d="M256.25 120.607v-42.041h512.5v42.041c0 86.084-170.166 132.129-256.25 132.129s-256.25-46.045-256.25-132.129zM640.626 462.941c0 70.068-58.057 128.125-128.125 128.125s-128.125-58.057-128.125-128.125 58.057-128.125 128.125-128.125 128.125 58.057 128.125 128.125zM128.125 633.108c0 46.045 38.037 86.084 86.084 86.084h596.583c46.045 0 86.084-40.039 86.084-86.084v-596.583c0-46.045-40.039-86.084-86.084-86.084h-596.583c-48.047 0-86.084 40.039-86.084 86.084v596.583z" />
<glyph unicode="&#xe853;" glyph-name="account_circle" d="M512.5 26.515c106.104 0 200.196 56.055 256.25 138.135-2.002 84.082-172.168 132.129-256.25 132.129-86.084 0-254.248-48.047-256.25-132.129 56.055-82.080 150.147-138.135 256.25-138.135zM512.5 633.108c-70.068 0-128.125-58.057-128.125-128.125s58.057-128.125 128.125-128.125 128.125 58.057 128.125 128.125-58.057 128.125-128.125 128.125zM512.5 761.233c236.231 0 426.416-190.186 426.416-426.416s-190.186-426.416-426.416-426.416-426.416 190.186-426.416 426.416 190.186 426.416 426.416 426.416z" />
<glyph unicode="&#xe859;" glyph-name="android" d="M640.626 633.108v44.043h-42.041v-44.043h42.041zM426.416 633.108v44.043h-42.041v-44.043h42.041zM662.647 755.227c64.063-46.045 106.104-122.119 106.104-206.201h-512.5c0 84.082 40.039 160.156 104.102 206.201l-56.055 56.055c-8.008 8.008-8.008 22.022 0 30.029s22.022 8.008 30.029 0l64.063-64.063c34.033 18.018 74.072 28.027 114.111 28.027s78.076-10.010 112.109-28.027l64.063 64.063c8.008 8.008 22.022 8.008 30.029 0s8.008-22.022 0-30.029zM874.854 504.982c36.035 0 64.063-28.027 64.063-64.063v-298.291c0-36.035-28.027-64.063-64.063-64.063s-64.063 28.027-64.063 64.063v298.291c0 36.035 28.027 64.063 64.063 64.063zM150.147 504.982c36.035 0 64.063-28.027 64.063-64.063v-298.291c0-36.035-28.027-64.063-64.063-64.063s-64.063 28.027-64.063 64.063v298.291c0 36.035 28.027 64.063 64.063 64.063zM256.25 78.566v426.416h512.5v-426.416c0-24.023-18.018-42.041-42.041-42.041h-44.043v-150.147c0-36.035-28.027-64.063-64.063-64.063s-64.063 28.027-64.063 64.063v150.147h-84.082v-150.147c0-36.035-28.027-64.063-64.063-64.063s-64.063 28.027-64.063 64.063v150.147h-44.043c-24.023 0-42.041 18.018-42.041 42.041z" />
<glyph unicode="&#xe868;" glyph-name="bug_report" d="M598.585 334.816v86.084h-172.168v-86.084h172.168zM598.585 164.65v84.082h-172.168v-84.082h172.168zM854.835 504.982v-84.082h-90.088c2.002-14.014 4.004-30.029 4.004-44.043v-42.041h86.084v-86.084h-86.084v-42.041c0-14.014-2.002-28.027-4.004-42.041h90.088v-86.084h-120.117c-44.043-76.074-128.125-128.125-222.217-128.125s-178.174 52.051-222.217 128.125h-120.117v86.084h90.088c-2.002 14.014-4.004 28.027-4.004 42.041v42.041h-86.084v86.084h86.084v42.041c0 14.014 2.002 30.029 4.004 44.043h-90.088v84.082h120.117c20.020 34.033 46.045 62.061 78.076 84.082l-70.068 70.068 60.059 60.059 94.092-92.090c20.020 4.004 40.039 6.006 60.059 6.006s40.039-2.002 60.059-6.006l94.092 92.090 60.059-60.059-70.068-70.068c32.031-22.022 58.057-50.049 78.076-84.082h120.117z" />
<glyph unicode="&#xe869;" glyph-name="bug" d="M896.876 249.4h-77.62c-3.193 56.337-16.894 110.351-40.004 158.969 53.108 15.639 91.999 64.802 91.999 122.906 0 14.152-11.472 25.625-25.625 25.625s-25.625-11.473-25.625-25.625c0-39.022-29.234-71.324-66.945-76.212-8.937 13.645-18.696 26.706-29.288 39.064-5.52 6.441-11.214 12.612-17.049 18.543 7.154 22.499 10.782 45.922 10.782 69.855 0 127.167-103.458 230.625-230.625 230.625s-230.625-103.458-230.625-230.625c0-23.932 3.628-47.355 10.781-69.855-5.835-5.929-11.526-12.102-17.049-18.543-10.592-12.358-20.351-25.419-29.288-39.064-37.711 4.888-66.943 37.19-66.943 76.212 0 14.152-11.473 25.625-25.625 25.625s-25.625-11.473-25.625-25.625c0-58.103 38.891-107.267 91.997-122.904-23.109-48.62-36.809-102.634-40.004-158.971h-77.618c-14.152 0-25.625-11.472-25.625-25.625s11.473-25.625 25.625-25.625h77.62c3.193-56.338 16.894-110.351 40.004-158.971-53.108-15.637-91.999-64.801-91.999-122.904 0-14.153 11.473-25.625 25.625-25.625s25.625 11.472 25.625 25.625c0 39.022 29.234 71.324 66.945 76.212 8.937-13.645 18.695-26.706 29.288-39.064 63.027-73.53 147.157-114.023 236.892-114.023s173.868 40.494 236.892 114.023c10.591 12.358 20.351 25.419 29.287 39.064 37.714-4.888 66.947-37.188 66.947-76.212 0-14.153 11.472-25.625 25.625-25.625s25.625 11.472 25.625 25.625c0 58.103-38.891 107.268-91.997 122.904 23.109 48.618 36.809 102.633 40.004 158.971h77.618c14.153 0 25.625 11.472 25.625 25.625s-11.472 25.625-25.625 25.625zM486.875 761.9c98.908 0 179.375-80.468 179.375-179.375 0-10.997-0.991-21.845-2.936-32.49-52.363 37.848-112.995 58.115-176.439 58.115s-124.076-20.266-176.439-58.115c-1.944 10.644-2.936 21.493-2.936 32.49 0 98.908 80.468 179.375 179.375 179.375zM205 223.775c0 173.475 112.788 316.381 256.25 331.734v-663.469c-143.462 15.354-256.25 158.261-256.25 331.735zM512.5-107.96v663.469c143.462-15.353 256.25-158.259 256.25-331.734s-112.788-316.381-256.25-331.735z" />
<glyph unicode="&#xe86a;" glyph-name="code" d="M256.25 95.65c-6.558 0-13.115 2.501-18.119 7.506l-205 205c-10.008 10.007-10.008 26.232 0 36.238l205 205c10.007 10.007 26.232 10.007 36.238 0 10.008-10.007 10.008-26.232 0-36.238l-186.882-186.882 186.881-186.882c10.008-10.007 10.008-26.232 0-36.238-5.003-5.003-11.56-7.505-18.119-7.505zM768.751 95.65c-6.558 0-13.115 2.501-18.119 7.506-10.008 10.007-10.008 26.232 0 36.238l186.881 186.881-186.881 186.882c-10.008 10.007-10.008 26.232 0 36.238 10.007 10.007 26.232 10.007 36.238 0l205-205c10.008-10.007 10.008-26.232 0-36.238l-205-205c-5.005-5.005-11.561-7.506-18.12-7.506zM384.351 95.647c-4.639 0-9.334 1.259-13.557 3.898-12.001 7.501-15.649 23.311-8.149 35.312l256.25 410c7.5 11.996 23.306 15.649 35.312 8.149 12.001-7.501 15.649-23.311 8.149-35.312l-256.25-410c-4.863-7.778-13.215-12.047-21.755-12.047z" />
<glyph unicode="&#xe86c;" glyph-name="check_circle" d="M426.416 120.607l384.375 384.375-60.059 62.061-324.317-324.317-152.149 152.149-60.059-60.059zM512.5 761.233c236.231 0 426.416-190.186 426.416-426.416s-190.186-426.416-426.416-426.416-426.416 190.186-426.416 426.416 190.186 426.416 426.416 426.416z" />
<glyph unicode="&#xe86d;" glyph-name="chrome_reader_mode" d="M896.876 36.525v554.542h-384.375v-554.542h384.375zM896.876 677.151c46.045 0 86.084-40.039 86.084-86.084v-554.542c0-46.045-40.039-86.084-86.084-86.084h-768.751c-46.045 0-86.084 40.039-86.084 86.084v554.542c0 46.045 40.039 86.084 86.084 86.084h768.751zM554.542 228.713h300.293v-64.063h-300.293v64.063zM554.542 440.92h300.293v-64.063h-300.293v64.063zM554.542 334.816h300.293v-64.063h-300.293v64.063z" />
<glyph unicode="&#xe86f;" glyph-name="code2" d="M622.608 138.625l198.194 196.192-198.194 196.192 60.059 60.059 256.25-256.25-256.25-256.25zM402.393 138.625l-60.059-60.059-256.25 256.25 256.25 256.25 60.059-60.059-198.194-196.192z" />
<glyph unicode="&#xe879;" glyph-name="exit_to_app" d="M810.792 719.192c46.045 0 86.084-40.039 86.084-86.084v-596.583c0-46.045-40.039-86.084-86.084-86.084h-596.583c-48.047 0-86.084 40.039-86.084 86.084v170.166h86.084v-170.166h596.583v596.583h-596.583v-170.166h-86.084v170.166c0 46.045 38.037 86.084 86.084 86.084h596.583zM430.42 180.666l110.108 112.109h-412.403v84.082h412.403l-110.108 112.109 60.059 60.059 214.209-214.209-214.209-214.209z" />
<glyph unicode="&#xe87b;" glyph-name="extension" d="M874.854 376.857c58.057 0 108.106-48.047 108.106-106.104s-50.049-106.104-108.106-106.104h-64.063v-172.168c0-46.045-38.037-84.082-84.082-84.082h-162.158v64.063c0 64.063-52.051 114.111-116.113 114.111s-116.113-50.049-116.113-114.111v-64.063h-162.158c-46.045 0-84.082 38.037-84.082 84.082v162.158h64.063c64.063 0 114.111 52.051 114.111 116.113s-50.049 116.113-114.111 116.113h-64.063v162.158c0 46.045 38.037 84.082 84.082 84.082h172.168v64.063c0 58.057 48.047 108.106 106.104 108.106s106.104-50.049 106.104-108.106v-64.063h172.168c46.045 0 84.082-38.037 84.082-84.082v-172.168h64.063z" />
<glyph unicode="&#xe880;" glyph-name="find_in_page" d="M384.375 292.775c0 70.068 58.057 128.125 128.125 128.125s128.125-58.057 128.125-128.125-58.057-128.125-128.125-128.125-128.125 58.057-128.125 128.125zM854.835 10.5l-164.16 164.16c22.022 34.033 36.035 74.072 36.035 118.115 0 118.115-96.094 212.207-214.209 212.207s-214.209-94.092-214.209-212.207 96.094-214.209 214.209-214.209c44.043 0 84.082 14.014 118.115 36.035l188.184-190.186c-14.014-10.010-30.029-16.016-50.049-16.016h-512.5c-46.045 0-86.084 38.037-86.084 84.082l2.002 684.669c0 46.045 38.037 84.082 84.082 84.082h342.334l256.25-256.25v-494.483z" />
<glyph unicode="&#xe881;" glyph-name="find_replace" d="M710.694 200.685l206.201-208.203-62.061-62.061-208.203 206.201c-50.049-36.035-110.108-58.057-176.172-58.057-82.080 0-158.154 34.033-212.207 88.086l-88.086-88.086v256.25h256.25l-108.106-108.106c38.037-38.037 94.092-62.061 152.149-62.061 104.102 0 188.184 72.070 208.203 170.166h86.084c-6.006-50.049-26.025-96.094-54.053-134.131zM470.459 591.066c-104.102 0-190.186-72.070-210.205-170.166h-86.084c20.020 144.141 146.143 256.25 296.289 256.25 82.080 0 156.152-34.033 210.205-88.086l88.086 88.086v-256.25h-256.25l108.106 108.106c-38.037 38.037-92.090 62.061-150.147 62.061z" />
<glyph unicode="&#xe884;" glyph-name="commit" d="M214.209 78.566h596.583v-86.084h-596.583v86.084zM810.792 462.941l-298.291-298.291-298.291 298.291h170.166v256.25h256.25v-256.25h170.166z" />
<glyph unicode="&#xe88a;" glyph-name="home" d="M426.416-7.518h-212.207v342.334h-128.125l426.416 384.375 426.416-384.375h-128.125v-342.334h-212.207v256.25h-172.168v-256.25z" />
<glyph unicode="&#xe88e;" glyph-name="layers" d="M512.5 249.4c-3.382 0-6.765 0.67-9.944 2.008l-486.875 205c-9.502 4.001-15.681 13.306-15.681 23.617s6.179 19.616 15.681 23.617l486.875 205c6.36 2.678 13.53 2.678 19.888 0l486.875-205c9.502-4.001 15.681-13.306 15.681-23.617s-6.179-19.616-15.681-23.617l-486.875-205c-3.179-1.339-6.561-2.008-9.944-2.008zM91.66 480.025l420.841-177.197 420.841 177.197-420.841 177.197-420.841-177.197zM512.5 95.65c-3.382 0-6.765 0.67-9.944 2.008l-486.875 205c-13.043 5.491-19.165 20.518-13.672 33.561s20.518 19.165 33.561 13.672l476.932-200.814 476.932 200.814c13.042 5.488 28.069-0.631 33.561-13.672 5.493-13.045-0.631-28.069-13.672-33.561l-486.875-205c-3.179-1.339-6.561-2.008-9.944-2.008zM512.5-58.1c-3.382 0-6.765 0.67-9.944 2.008l-486.875 205c-13.043 5.491-19.165 20.518-13.672 33.561s20.518 19.163 33.561 13.672l476.932-200.814 476.932 200.814c13.042 5.488 28.069-0.631 33.561-13.672 5.493-13.045-0.631-28.069-13.672-33.561l-486.875-205c-3.179-1.339-6.561-2.008-9.944-2.008z" />
<glyph unicode="&#xe89c;" glyph-name="note_add" d="M554.542 462.941h236.231l-236.231 234.229v-234.229zM682.667 164.65v84.082h-128.125v128.125h-84.082v-128.125h-128.125v-84.082h128.125v-128.125h84.082v128.125h128.125zM598.585 761.233l256.25-256.25v-512.5c0-46.045-40.039-84.082-86.084-84.082h-512.5c-46.045 0-86.084 38.037-86.084 84.082l2.002 684.669c0 46.045 38.037 84.082 84.082 84.082h342.334z" />
<glyph unicode="&#xe8a1;" glyph-name="payment" d="M854.835 504.982v86.084h-684.669v-86.084h684.669zM854.835 78.566v256.25h-684.669v-256.25h684.669zM854.835 677.151c48.047 0 84.082-38.037 84.082-86.084v-512.5c0-48.047-36.035-86.084-84.082-86.084h-684.669c-48.047 0-84.082 38.037-84.082 86.084v512.5c0 48.047 36.035 86.084 84.082 86.084h684.669z" />
<glyph unicode="&#xe8a5;" glyph-name="hand" d="M871.251 659.4c-18.663 0-36.161-5.039-51.25-13.789v65.040c0 56.519-45.981 102.5-102.5 102.5-21.093 0-40.714-6.409-57.029-17.375-14.022 39.919-52.072 68.625-96.721 68.625s-82.7-28.706-96.721-68.625c-16.315 10.966-35.936 17.375-57.029 17.375-56.519 0-102.5-45.981-102.5-102.5v-377.889l-68.976 119.563c-13.379 24.35-35.197 41.686-61.465 48.83-25.585 6.956-52.197 3.275-74.931-10.367-46.506-27.904-64.201-90.908-39.481-140.507 1.515-3.104 34.246-70.092 136.303-274.206 48.057-96.115 100.802-164.814 156.772-204.193 43.939-30.916 74.268-32.483 79.902-32.483h256.25c43.616 0 84.167 14.18 120.528 42.15 34.179 26.292 63.844 64.295 88.174 112.952 47.871 95.743 73.173 228.189 73.173 383.024v179.375c0 56.519-45.981 102.5-102.5 102.5zM922.501 377.525c0-146.917-23.433-271.439-67.764-360.104-28.916-57.832-80.644-126.772-162.861-126.772h-255.74c-2.018 0.173-23.569 2.568-56.122 26.92-32.442 24.27-82.235 75.447-135.223 181.423-103.89 207.782-135.818 273.214-136.128 273.851-0.037 0.077-0.075 0.154-0.114 0.23-12.883 25.767-3.748 59.548 19.947 73.766 10.655 6.393 23.125 8.118 35.114 4.858 12.778-3.473 23.461-12.071 30.080-24.206 0.098-0.179 0.198-0.357 0.301-0.535l79.977-138.633c16.365-29.871 34.757-42.446 54.675-37.364 19.975 5.093 30.104 25.043 30.104 59.298v400.391c0 28.26 22.99 51.25 51.25 51.25s51.25-22.99 51.25-51.25v-333.125c0-14.152 11.473-25.625 25.625-25.625s25.625 11.473 25.625 25.625v384.375c0 28.26 22.99 51.25 51.25 51.25s51.25-22.99 51.25-51.25v-384.375c0-14.152 11.472-25.625 25.625-25.625s25.625 11.473 25.625 25.625v333.125c0 28.26 22.99 51.25 51.25 51.25s51.25-22.99 51.25-51.25v-384.375c0-14.153 11.472-25.625 25.625-25.625s25.625 11.472 25.625 25.625v230.625c0 28.26 22.99 51.25 51.25 51.25s51.25-22.99 51.25-51.25v-179.375z" />
<glyph unicode="&#xe8a8;" glyph-name="perm_phone_msg" d="M512.5 719.192h384.375v-298.291h-256.25l-128.125-128.125v426.416zM854.835 184.67c24.023 0 42.041-18.018 42.041-42.041v-150.147c0-24.023-18.018-42.041-42.041-42.041-400.391 0-726.71 326.319-726.71 726.71 0 24.023 18.018 42.041 42.041 42.041h150.147c24.023 0 42.041-18.018 42.041-42.041 0-54.053 8.008-104.102 24.023-152.149 4.004-14.014 2.002-32.031-10.010-44.043l-94.092-94.092c62.061-120.117 162.158-220.215 282.276-282.276l94.092 94.092c12.012 12.012 30.029 14.014 44.043 10.010 48.047-16.016 98.096-24.023 152.149-24.023z" />
<glyph unicode="&#xe8ad;" glyph-name="print" d="M768.751 719.192v-170.166h-512.5v170.166h512.5zM810.792 334.816c24.023 0 44.043 18.018 44.043 42.041s-20.020 44.043-44.043 44.043-42.041-20.020-42.041-44.043 18.018-42.041 42.041-42.041zM682.667 36.525v212.207h-340.332v-212.207h340.332zM810.792 504.982c70.068 0 128.125-58.057 128.125-128.125v-256.25h-170.166v-170.166h-512.5v170.166h-170.166v256.25c0 70.068 58.057 128.125 128.125 128.125h596.583z" />
<glyph unicode="&#xe8b4;" glyph-name="room" d="M512.5 356.838c58.057 0 106.104 48.047 106.104 106.104s-48.047 106.104-106.104 106.104-106.104-48.047-106.104-106.104 48.047-106.104 106.104-106.104zM512.5 761.233c166.162 0 298.291-132.129 298.291-298.291 0-224.219-298.291-554.542-298.291-554.542s-298.291 330.323-298.291 554.542c0 166.162 132.129 298.291 298.291 298.291z" />
<glyph unicode="&#xe8b8;" glyph-name="settings" d="M512.5 184.67c82.080 0 150.147 68.066 150.147 150.147s-68.066 150.147-150.147 150.147-150.147-68.066-150.147-150.147 68.066-150.147 150.147-150.147zM830.811 292.775l90.088-70.068c8.008-6.006 10.010-18.018 4.004-28.027l-86.084-148.145c-6.006-10.010-16.016-12.012-26.025-8.008l-106.104 42.041c-22.022-16.016-46.045-32.031-72.070-42.041l-16.016-112.109c-2.002-10.010-10.010-18.018-20.020-18.018h-172.168c-10.010 0-18.018 8.008-20.020 18.018l-16.016 112.109c-26.025 10.010-50.049 24.023-72.070 42.041l-106.104-42.041c-10.010-4.004-20.020-2.002-26.025 8.008l-86.084 148.145c-6.006 10.010-4.004 22.022 4.004 28.027l90.088 70.068c-2.002 14.014-2.002 28.027-2.002 42.041s0 28.027 2.002 42.041l-90.088 70.068c-8.008 6.006-10.010 18.018-4.004 28.027l86.084 148.145c6.006 10.010 16.016 12.012 26.025 8.008l106.104-42.041c22.022 16.016 46.045 32.031 72.070 42.041l16.016 112.109c2.002 10.010 10.010 18.018 20.020 18.018h172.168c10.010 0 18.018-8.008 20.020-18.018l16.016-112.109c26.025-10.010 50.049-24.023 72.070-42.041l106.104 42.041c10.010 4.004 20.020 2.002 26.025-8.008l86.084-148.145c6.006-10.010 4.004-22.022-4.004-28.027l-90.088-70.068c2.002-14.014 2.002-28.027 2.002-42.041s0-28.027-2.002-42.041z" />
<glyph unicode="&#xe8e8;" glyph-name="verified_user" d="M426.416 120.607l342.334 342.334-60.059 60.059-282.276-280.274-110.108 110.108-60.059-60.059zM512.5 805.276l384.375-172.168v-256.25c0-236.231-164.16-458.448-384.375-512.5-220.215 54.053-384.375 276.27-384.375 512.5v256.25z" />
<glyph unicode="&#xe8ef;" glyph-name="view_list" d="M384.375 633.108h512.5v-170.166h-512.5v170.166zM384.375 36.525v170.166h512.5v-170.166h-512.5zM384.375 248.732v172.168h512.5v-172.168h-512.5zM170.166 462.941v170.166h172.168v-170.166h-172.168zM170.166 36.525v170.166h172.168v-170.166h-172.168zM170.166 248.732v172.168h172.168v-172.168h-172.168z" />
<glyph unicode="&#xe8fa;" glyph-name="youtube_searched_for" d="M726.71 248.732l212.207-212.207-62.061-64.063-214.209 214.209v32.031l-12.012 12.012c-48.047-42.041-112.109-66.065-180.176-66.065-52.051 0-100.098 14.014-142.139 38.037l64.063 62.061c24.023-10.010 50.049-16.016 78.076-16.016 106.104 0 192.188 86.084 192.188 192.188s-86.084 192.188-192.188 192.188-192.188-86.084-192.188-192.188h148.145l-176.172-170.166-164.16 170.166h106.104c0 150.147 124.121 278.272 278.272 278.272s278.272-124.121 278.272-278.272c0-70.068-26.025-132.129-68.066-180.176l12.012-12.012h34.033z" />
<glyph unicode="&#xe8ff;" glyph-name="zoom_in" d="M512.5 420.9h-86.084v-86.084h-42.041v86.084h-86.084v42.041h86.084v86.084h42.041v-86.084h86.084v-42.041zM406.397 248.732c106.104 0 192.188 86.084 192.188 192.188s-86.084 192.188-192.188 192.188-192.188-86.084-192.188-192.188 86.084-192.188 192.188-192.188zM662.647 248.732l212.207-212.207-64.063-64.063-212.207 212.207v34.033l-12.012 12.012c-48.047-42.041-112.109-66.065-180.176-66.065-154.151 0-278.272 122.119-278.272 276.27s124.121 278.272 278.272 278.272 276.27-124.121 276.27-278.272c0-68.066-24.023-132.129-66.065-180.176l12.012-12.012h34.033z" />
<glyph unicode="&#xe900;" glyph-name="one-finger" d="M624.57-70.913c132.701 0 240.275 114.839 240.275 240.235 0 0 0-74.096 0 0v192.134c0 26.565-21.327 48.101-48.047 48.101-26.536 0-48.047-21.499-48.047-48.101v-15.962h-32.031v79.872c0 26.649-21.327 48.253-48.047 48.253-26.536 0-48.047-21.51-48.047-48.253v-47.841h-32.031v79.872c0 26.649-21.327 48.253-48.047 48.253-26.536 0-48.047-21.51-48.047-48.253v-111.903h-32.031v336.16c0 26.628-21.327 48.215-48.047 48.215-26.536 0-48.047-21.369-48.047-48.215v-361.785c-65.933 70.482-152.737 148.013-188.311 112.247-34.823-35.011 54.913-131.488 180.219-342.33 56.459-94.998 127.898-160.683 248.286-160.698v0 0zM896.876 169.322c0-150.368-121.898-272.266-272.266-272.266-99.71 0-204.942 46.525-277.365 178.471-104.534 190.449-238.216 315.348-174.561 379.003 45.537 45.537 117.033 1.851 179.659-56.722v0 283.745c0 44.62 35.852 80.347 80.078 80.347 44.534 0 80.078-35.973 80.078-80.347v-159.835c13.384 10.028 30.019 15.964 48.047 15.964 34.675 0 63.898-21.7 75.139-52.151 14.119 12.496 32.669 20.12 52.986 20.12 44.534 0 80.078-35.818 80.078-80.002v-0.431c13.384 10.012 30.019 15.917 48.047 15.917 44.534 0 80.078-35.854 80.078-80.082v-191.729z" />
<glyph unicode="&#xe901;" glyph-name="triangle-down" d="M256.25 556.9h512.5l-256.25-461.25-256.25 461.25z" />
<glyph unicode="&#xe902;" glyph-name="news-paper" d="M820.001 761.9h205v-768.751c0-84.914-68.836-153.75-153.75-153.75v0h-717.501c-84.914 0-153.75 68.836-153.75 153.75v0 871.251h820.001v-102.5zM820.001 659.4v-666.251c0-28.305 22.945-51.25 51.25-51.25v0c28.305 0 51.25 22.945 51.25 51.25v0 666.251h-102.5zM102.5 761.9v-768.751c0-28.305 22.945-51.25 51.25-51.25v0h572.463c-5.52 15.142-8.714 32.622-8.714 50.848 0 0.141 0 0.283 0.001 0.424v-0.022 768.751h-615.001zM205 351.9h410v-102.5h-410v102.5zM205 146.9h410v-102.5h-410v102.5zM205 659.4h410v-205h-410v205z" />
<glyph unicode="&#xe903;" glyph-name="credit-card" d="M844.119 726.73h-663.236c-99.727 0-180.883-81.155-180.883-180.883v-422.060c0-99.727 81.155-180.883 180.883-180.883h663.236c99.727 0 180.883 81.155 180.883 180.883v422.060c0 99.727-81.155 180.883-180.883 180.883zM904.414 123.788c0-33.283-27.012-60.295-60.295-60.295h-663.236c-33.283 0-60.295 27.012-60.295 60.295v241.178h783.825v-241.178zM904.414 485.553h-783.825v60.295c0 33.283 27.012 60.295 60.295 60.295h663.236c33.283 0 60.295-27.012 60.295-60.295v-60.295zM663.237 184.082h120.588c16.641 0 30.146 13.505 30.146 30.146s-13.505 30.146-30.146 30.146h-120.588c-16.641 0-30.146-13.505-30.146-30.146s13.505-30.146 30.146-30.146z" />
<glyph unicode="&#xe904;" glyph-name="align-multirow" d="M128.125 601.744h256.25v-128.125h-256.25v128.125zM448.438 601.744h256.25v-128.125h-256.25v128.125zM128.125 409.556h384.375v-128.125h-384.375v128.125zM576.563 409.556h320.313v-128.125h-320.313v128.125zM768.751 601.744h128.125v-128.125h-128.125v128.125zM128.125 217.369h128.125v-128.125h-128.125v128.125zM320.313 217.369h384.375v-128.125h-384.375v128.125zM768.751 217.369h128.125v-128.125h-128.125v128.125z" />
<glyph unicode="&#xe905;" glyph-name="align-onerow" d="M384.375 342.291v192.188h-256.25v-256.25h768.751v64.063h-512.5zM448.438 534.478h256.25v-128.125h-256.25v128.125zM128.125 214.165h768.751v-64.063h-768.751v64.063z" />
<glyph unicode="&#xe906;" glyph-name="antwiz" d="M886.626 689.51c-0.105 0-0.23 0.001-0.354 0.001-50.594 0-91.609-41.015-91.609-91.609 0-19.945 6.374-38.403 17.197-53.445l-246.186-245.728c-28.95 24.403-66.666 39.233-107.846 39.233-44.899 0-85.68-17.629-115.799-46.343l-192.121 192.251c3.941 6.652 6.269 14.663 6.269 23.218 0 25.474-20.651 46.125-46.125 46.125s-46.125-20.651-46.125-46.125c0-25.474 20.651-46.125 46.125-46.125 6.529 0 12.742 1.357 18.372 3.804l191.889-196.147c-20.224-27.461-32.366-61.959-32.366-99.291 0-93.052 75.433-168.485 168.485-168.485s168.485 75.433 168.485 168.485c0 41.338-14.888 79.198-39.593 108.514l247.49 245.106c14.668-10.418 32.94-16.655 52.669-16.655 50.594 0 91.609 41.015 91.609 91.609 0 50.418-40.729 91.323-91.080 91.608z" />
<glyph unicode="&#xe907;" glyph-name="bookmark-list" d="M841.141 348.697l-55.094 55.734h-143.5l85.203 85.203 2.563 81.359-81.359-2.563-85.203-85.844v144.141l-55.734 55.094-55.094-55.094v-144.141l-85.203 85.844-81.359 2.563 2.563-81.359 85.203-85.203h-143.5l-55.734-55.734 55.734-55.094h143.5l-85.203-85.203-2.563-81.359 81.359 2.563 85.203 85.203v-143.5l55.094-55.734 55.734 55.734v143.5l85.203-85.203 81.359-2.563-2.563 81.359-85.203 85.203h143.5l55.094 55.094zM119.797 793.291v-333.125l166.563 166.563-166.563 166.563z" />
<glyph unicode="&#xe908;" glyph-name="bookmark" d="M837.938 345.494l-53.813 53.813h-139.656l137.094 137.735 2.563 78.797-79.438-2.563-137.094-137.094v139.656l-53.813 53.813-54.453-53.813v-139.656l-137.094 137.094-78.797 2.563 2.563-78.797 137.094-137.735h-139.656l-54.453-53.813 54.453-53.813h139.656l-137.094-137.094-2.563-79.438 78.797 2.563 137.094 137.094v-139.656l54.453-53.813 53.813 53.813v139.656l137.094-137.094 79.438-2.563-2.563 79.438-137.094 137.094h139.656l53.813 53.813z" />
<glyph unicode="&#xe909;" glyph-name="close-invert" d="M512.5 737.557c-0.19 0-0.415 0.001-0.64 0.001-216.884 0-392.703-175.82-392.703-392.703s175.82-392.703 392.703-392.703c216.884 0 392.703 175.82 392.703 392.703 0 0.225 0 0.45-0.001 0.675-0.364 216.349-175.679 391.663-392.028 392.028zM736.719 200.072l-79.438-78.797-144.781 144.781-145.422-144.781-78.797 79.438 144.781 144.781-144.781 144.781 78.797 79.438 145.422-144.781 144.781 144.781 79.438-79.438-145.422-144.781z" />
<glyph unicode="&#xe90a;" glyph-name="close" d="M841.782 565.228l-109.547 109.547-219.735-219.735-219.735 219.735-109.547-109.547 219.735-219.735-219.735-219.735 109.547-109.547 219.735 219.735 219.735-219.735 109.547 109.547-219.735 219.735 219.735 219.735z" />
<glyph unicode="&#xe90b;" glyph-name="config" d="M902.001 300.009c1.773 13.561 2.784 29.245 2.784 45.164s-1.012 31.603-2.974 46.989l-127.935 43.019c-4.604 13.51-9.367 24.728-14.819 35.54l60.945 118.21c-19.068 23.965-40.097 44.995-63.268 63.451l-120.592-56.404c-9.235 4.736-20.453 9.499-32.023 13.511l-46.774 128.708c-6.797 0.419-14.741 0.659-22.742 0.659s-15.945-0.239-23.826-0.711c-5.615 0.455-13.45 0.686-21.338 0.686s-15.721-0.23-23.495-0.684l-43.771-128.075c-13.486-4.58-24.704-9.344-35.51-14.807l-117.6 57.729c-23.954-19.080-44.983-40.108-63.451-63.269l56.404-120.591c-4.727-9.225-9.489-20.443-13.506-32.010l-128.713-46.787c-1.773-13.561-2.784-29.245-2.784-45.164s1.012-31.603 2.974-46.989l127.935-43.019c4.591-13.496 9.354-24.715 14.812-35.523l-57.734-117.587c19.085-23.95 40.112-44.978 63.269-63.451l120.591 56.404c9.235-4.736 20.453-9.499 32.023-13.511l46.774-128.708c6.701-0.403 14.534-0.634 22.422-0.634s15.721 0.23 23.495 0.684c5.725-0.478 13.668-0.724 21.669-0.724s15.945 0.244 23.824 0.727l43.762 128.072c13.499 4.594 24.718 9.358 35.527 14.813l118.223-57.735c23.965 19.068 44.995 40.097 63.451 63.268l-56.404 120.592c4.736 9.235 9.499 20.453 13.511 32.023zM512.5 177.009c-93.052 0-168.485 75.433-168.485 168.485s75.433 168.485 168.485 168.485c93.052 0 168.485-75.433 168.485-168.485 0.001-0.19 0.001-0.416 0.001-0.642 0-92.698-75.146-167.844-167.844-167.844-0.225 0-0.451 0-0.677 0.001zM596.422 345.494c0-46.349-37.573-83.922-83.922-83.922s-83.922 37.573-83.922 83.922c0 46.349 37.573 83.922 83.922 83.922s83.922-37.573 83.922-83.922z" />
<glyph unicode="&#xe90c;" glyph-name="connect" d="M512.5 735.635c-0.189 0-0.414 0.001-0.639 0.001-216.176 0-391.422-175.246-391.422-391.422s175.246-391.422 391.422-391.422c216.176 0 391.422 175.246 391.422 391.422 0 0.45-0.001 0.9-0.002 1.35-0.728 215.332-175.33 389.71-390.747 390.072zM455.485 671.572c16.853 3.236 36.238 5.088 56.055 5.088s39.2-1.852 57.989-5.39l-1.934-50.947h-110.828zM429.86 18.775c-146.2 38.148-252.355 169.018-252.355 324.682 0 145.069 92.197 268.604 221.194 315.207l2.334-35.138h-56.375v-223.578h55.734v-54.453h73.672c-26.412-14.993-44.233-42.438-45.479-74.142-0.005-48.858 40.354-72.561 69.823-89.858s42.281-26.266 42.281-41-13.453-24.344-42.281-41c-34.205-14.539-59.629-43.967-68.383-79.921zM513.141 7.884h-28.188c0 14.094 14.094 23.703 41.641 39.719s69.828 41 69.828 89.688-40.359 72.391-69.828 89.688-42.281 26.266-42.281 41 13.453 24.344 42.281 41c17.62 10.389 32.784 22.494 46.043 36.429l51.332 0.087v54.453h55.734v223.578h-55.094v36.516c131.465-47.491 223.734-171.205 223.734-316.469 0-185.395-150.293-335.688-335.688-335.688-0.055 0-0.109 0-0.164 0z" />
<glyph unicode="&#xe90d;" glyph-name="database" d="M517.625 729.869c-181.938 0-329.282-73.672-329.282-164.641v-110.188c0-90.969 147.344-164.641 329.282-164.641s329.282 73.672 329.282 164.641v110.188c0 90.969-147.344 164.641-329.282 164.641zM517.625 455.041c-167.844 0-274.828 64.063-274.828 109.547s106.984 110.188 274.828 110.188 274.828-64.063 274.828-109.547-106.984-110.188-274.828-110.188zM576.563 238.509v0c-18.578 0-37.797 0-57.656 0h-6.406c-19.219 0-37.797 0-56.375 0v0c-135.813 12.813-240.235 66.625-263.938 134.531-2.454-7.619-3.869-16.384-3.869-25.48 0-0.727 0.009-1.451 0.027-2.174l-0.002-54.987c0-90.969 147.344-164.641 329.282-164.641s329.282 73.672 329.282 164.641v55.094c-0.205 9.937-2.066 19.377-5.318 28.14-22.229-68.5-128.573-122.312-265.026-135.125zM576.563 73.868v0c-18.578 0-37.797 0-57.656 0h-6.406c-19.219 0-37.797 0-56.375 0v0c-135.813 15.375-240.235 66.625-263.938 134.531-3.059-8.17-4.92-17.61-5.124-27.457l-0.001-55.184c0-90.969 147.344-164.641 329.282-164.641s329.282 73.672 329.282 164.641v55.094c-0.205 9.937-2.066 19.377-5.318 28.14-20.947-69.141-127.291-119.75-263.745-135.125z" />
<glyph unicode="&#xe90e;" glyph-name="disconnect" d="M512.5 737.557c-216.884 0-392.702-175.82-392.702-392.703s175.82-392.703 392.703-392.703c216.884 0 392.703 175.82 392.703 392.703 0 0.225 0 0.45-0.001 0.676-0.364 216.573-176.044 392.028-392.702 392.028 0 0 0 0-0.001 0zM625.251 625.447v-55.734h-55.734v55.734zM457.407 625.447v-55.734h-56.375v55.734zM681.626 54.65v178.735h-56.375v112.109h-55.734v-112.109h-112.109v112.109h-56.375v-112.109h-55.734v-178.094c-100.714 59.042-167.273 166.756-167.273 290.015 0 62.148 16.921 120.344 46.406 170.231l579.555-1.558c28.389-48.224 45.158-106.235 45.158-168.162 0-123.465-66.653-231.361-165.94-289.669z" />
<glyph unicode="&#xe90f;" glyph-name="edit" d="M195.057 217.504l384.59 384.59 192.068-192.068-384.59-384.59-192.068 192.068zM643.244 665.304l63.871 63.871 192.068-192.068-63.871-63.871-192.068 192.068zM130.688-38.882h192.188l-192.188 192.188v-192.188z" />
<glyph unicode="&#xe910;" glyph-name="filter" d="M253.688 660.041h533.641v-53.172h-533.641v53.172zM253.688 553.056v-106.344l213.328-160.156v-267.141l106.984 106.984v160.156l213.328 160.156v106.344h-533.641z" />
<glyph unicode="&#xe911;" glyph-name="folder-open" d="M900.079 313.462v237.672h-475.985v119.156h-295.969v-713.657h712.376l120.438 356.828zM186.422 610.713h178.094v-118.516h475.985v-178.735h-535.563l-118.516-237.672z" />
<glyph unicode="&#xe912;" glyph-name="folder" d="M448.438 537.681v128.125h-320.313v-704.688h768.751v576.563zM192.188 409.556v192.188h192.188v-128.125h448.438v-64.063z" />
<glyph unicode="&#xe913;" glyph-name="function" d="M624.61 457.603v224.219h56.375v56.375h-336.969v-56.375h56.375v-224.219l-224.219-336.328 56.375-168.485h560.547l56.375 168.485zM624.61 289.119h-55.734v-56.375h56.375v-56.375h-56.375v-56.375c0.010-0.386 0.015-0.841 0.015-1.296 0-30.428-24.666-55.094-55.094-55.094-0.455 0-0.911 0.006-1.363 0.017l-112.042-0.001v57.656h56.375v56.375h-56.375v55.734h56.375v55.734c-0.010 0.382-0.015 0.833-0.015 1.285 0 30.428 24.666 55.094 55.094 55.094 0.23 0 0.46-0.001 0.691-0.004h112.074zM456.125 681.822h112.75v-56.375h-56.375v-167.844h-56.375z" />
<glyph unicode="&#xe914;" glyph-name="help" d="M512.5 737.557c-216.53 0-392.063-175.532-392.063-392.063s175.532-392.063 392.063-392.063c216.53 0 392.063 175.532 392.063 392.063-0.364 216.383-175.68 391.699-392.028 392.063zM512.5 9.165c-185.749 0-336.328 150.579-336.328 336.328s150.579 336.328 336.328 336.328c185.749 0 336.328-150.579 336.328-336.328-0.363-185.602-150.726-335.965-336.293-336.328zM456.125 177.009h112.109v-55.734h-112.109v55.734zM568.235 569.713h-112.109q-99.297 0-112.109-112.109h55.734q4.484 55.734 56.375 55.734h56.375c30.637-0.357 55.377-25.098 55.734-55.7-0.415-20.931-12.403-38.935-29.802-47.937l-9.276-5.269c-43.243-20.942-72.624-64.328-73.031-114.618v-56.429h112.109v56.375c-0.045 1.212-0.070 2.637-0.070 4.066 0 11.558 1.664 22.728 4.765 33.284q4.274 11.979 34.384 25.432l8.969 3.844c37.967 15.167 64.303 51.631 64.303 94.247 0 2.453-0.087 4.886-0.259 7.296 0.047 0.592 0.063 1.669 0.063 2.749 0 30.224-12.532 57.52-32.685 76.975-19.755 19.832-47.045 32.085-77.196 32.085-0.799 0-1.596-0.009-2.391-0.026z" />
<glyph unicode="&#xe915;" glyph-name="history" d="M509.297 345.494h-128.125v-64.063h192.188v256.25h-64.063v-192.188zM861.641 153.306l160.156 192.188h-128.125c0.001 0.271 0.001 0.594 0.001 0.916 0 212.284-172.091 384.375-384.375 384.375s-384.375-172.091-384.375-384.375c0-212.284 172.091-384.375 384.375-384.375 122.358 0 231.363 57.172 301.758 146.26l-46.149 45.012c-59.058-78.148-151.818-128.125-256.25-128.125-176.904 0-320.313 143.409-320.313 320.313s143.409 320.313 320.313 320.313c176.904 0 320.313-143.409 320.313-320.313h-128.125z" />
<glyph unicode="&#xe916;" glyph-name="index" d="M819.36 138.572v167.203h-278.032v167.844h110.828v220.375h-277.391v-220.375h110.828v-167.844h-277.391v-167.203h-55.734v-166.563h167.844v166.563h-56.375v110.828h221.656v-110.828h-55.094v-166.563h166.563v166.563h-55.734v110.828h222.297v-110.828h-55.734v-166.563h166.563v166.563zM430.5 527.431v110.828h166.563v-110.828zM263.938 25.181h-55.734v57.656h55.734zM541.329 25.181h-55.734v57.656h55.734zM818.72 25.181h-55.734v57.656h55.734z" />
<glyph unicode="&#xe917;" glyph-name="Nav-Learn" d="M834.725 542.978l-572.863-573.54-132.252 132.252 573.161 573.242 131.954-131.954zM870.595 578.89l-131.935 131.935 87.674 87.687c19.864 19.867 51.973 19.713 71.902-0.162l59.885-59.72c19.892-19.837 20.038-52.050 0.243-71.868l-87.77-87.873zM96.732 62.786l126.658-126.658-159.121-31.335 32.461 157.993zM50.862 93.789l-50.758-253.789 253.789 50.758 740.053 740.053c39.804 39.804 39.9 104.242 0.49 143.652l-59.869 59.869c-39.534 39.534-103.417 39.745-143.652-0.49l-740.053-740.053z" />
<glyph unicode="&#xe918;" glyph-name="key" d="M809.751 345.494h-308.141c-25.278 70.013-91.156 119.156-168.513 119.156-98.712 0-178.735-80.022-178.735-178.735s80.022-178.735 178.735-178.735c77.357 0 143.235 49.143 168.119 117.912l70.862 1.244v58.938h59.578v-119.156h59.578v119.156h59.578v-59.578h59.578l59.578 59.578zM274.828 225.697c-32.904 0-59.578 26.674-59.578 59.578s26.674 59.578 59.578 59.578c32.904 0 59.578-26.674 59.578-59.578s-26.674-59.578-59.578-59.578z" />
<glyph unicode="&#xe919;" glyph-name="list-more" d="M120.438 481.306l167.844-167.844 168.485 167.844h-336.328zM456.766 422.369h448.438v55.734h-392.703l-55.734-55.734zM400.391 593.416h504.172v-55.734h-504.172v55.734zM400.391 369.197h504.172v-55.734h-504.172v55.734zM400.391 257.728h504.172v-55.734h-504.172v55.734zM400.391 145.618h504.172v-55.734h-504.172v55.734z" />
<glyph unicode="&#xe91a;" glyph-name="minus" d="M192.188 406.353h640.626v-128.125h-640.626v128.125z" />
<glyph unicode="&#xe91b;" glyph-name="more" d="M518.907 747.166c-0.571 0.003-1.246 0.005-1.922 0.005-221.838 0-401.672-179.835-401.672-401.672s179.835-401.672 401.672-401.672c221.836 0 401.67 179.833 401.672 401.668 0 0.001 0 0.003 0 0.004 0 221.162-178.741 400.576-399.646 401.667zM518.907 0.837c-0.571-0.003-1.246-0.005-1.922-0.005-190.349 0-344.657 154.308-344.657 344.657s154.308 344.657 344.657 344.657c190.347 0 344.654-154.305 344.657-344.651 0-0.002 0-0.004 0-0.006 0-189.673-153.215-343.561-342.631-344.651zM403.594 345.494c0-31.843-25.813-57.656-57.656-57.656s-57.656 25.813-57.656 57.656c0 31.843 25.813 57.656 57.656 57.656s57.656-25.813 57.656-57.656zM575.282 345.494c0-31.843-25.813-57.656-57.656-57.656s-57.656 25.813-57.656 57.656c0 31.843 25.813 57.656 57.656 57.656s57.656-25.813 57.656-57.656zM747.61 345.494c0-31.843-25.813-57.656-57.656-57.656s-57.656 25.813-57.656 57.656c0 31.843 25.813 57.656 57.656 57.656s57.656-25.813 57.656-57.656z" />
<glyph unicode="&#xe91c;" glyph-name="move-end-page" d="M481.11 345.494v-316.469l253.047 316.469-253.047 316.469v-316.469zM734.157 661.963v-632.938h62.781v632.938h-62.781zM228.063 29.025l253.047 316.469-253.047 316.469v-632.938z" />
<glyph unicode="&#xe91d;" glyph-name="move-first-page" d="M288.282 345.494l256.25-320.313v640.626l-256.25-320.313zM224.219 665.806v-640.626h64.063v640.626h-64.063zM544.532 345.494l256.25-320.313v640.626l-256.25-320.313z" />
<glyph unicode="&#xe91e;" glyph-name="move-next-page" d="M512.5 654.916v-618.204l308.782 308.782-308.782 309.422zM245.36 612.635v-534.282l267.141 267.141-267.141 267.141z" />
<glyph unicode="&#xe91f;" glyph-name="move-next-row" d="M295.969 654.916v-618.204l433.063 308.782-433.063 309.422z" />
<glyph unicode="&#xe920;" glyph-name="move-prev-page" d="M176.813 345.494l320.313-320.313v640.626l-320.313-320.313zM497.125 345.494l320.313-320.313v640.626l-320.313-320.313z" />
<glyph unicode="&#xe921;" glyph-name="move-prev-row" d="M746.329 665.806v-640.626l-448.438 320.313 448.438 320.313z" />
<glyph unicode="&#xe922;" glyph-name="move-up" d="M832.813 121.275h-640.626l320.313 448.438 320.313-448.438z" />
<glyph unicode="&#xe923;" glyph-name="new" d="M608.594 665.806h-352.344v-640.626h512.5v483.032zM704.688 89.243h-384.375v512.5h256.25v-128.125h128.125z" />
<glyph unicode="&#xe924;" glyph-name="panel-view-stack" d="M120.438 685.666v-672.657h784.766v672.657zM849.47 68.743h-673.298v168.485h672.657zM849.47 292.962h-673.298v168.485h672.657zM232.547 405.712h168.485v-56.375h-168.485v56.375zM456.766 405.712h112.109v-56.375h-112.109v56.375zM624.61 405.712h56.375v-56.375h-56.375v56.375zM736.719 405.712h56.375v-56.375h-56.375v56.375zM232.547 181.493h168.485v-56.375h-168.485v56.375zM456.766 181.493h112.109v-56.375h-112.109v56.375zM624.61 181.493h56.375v-56.375h-56.375v56.375zM736.719 181.493h56.375v-56.375h-56.375v56.375z" />
<glyph unicode="&#xe925;" glyph-name="panel-view-window" d="M128.125 685.666v-672.657h782.204v672.657zM857.157 68.743h-675.86v392.703h672.657z" />
<glyph unicode="&#xe926;" glyph-name="pause-invert" d="M512.5 737.557c-0.19 0-0.415 0.001-0.64 0.001-216.884 0-392.703-175.82-392.703-392.703s175.82-392.703 392.703-392.703c216.884 0 392.703 175.82 392.703 392.703 0 0.225 0 0.45-0.001 0.675-0.364 216.349-175.679 391.663-392.028 392.028zM456.766 177.009h-112.75v336.328h112.109zM680.985 177.009h-112.75v336.328h112.109z" />
<glyph unicode="&#xe927;" glyph-name="pause" d="M512.5 735.635c-215.469 0-390.141-174.672-390.141-390.141s174.672-390.141 390.141-390.141c215.469 0 390.141 174.672 390.141 390.141s-174.672 390.141-390.141 390.141zM512.5 11.087c-184.687 0-334.407 149.719-334.407 334.407s149.719 334.407 334.407 334.407c184.687 0 334.407-149.719 334.407-334.407s-149.719-334.407-334.407-334.407zM345.297 512.697h111.469v-334.407h-111.469v334.407zM568.235 512.697h111.469v-334.407h-111.469v334.407z" />
<glyph unicode="&#xe928;" glyph-name="play-invert" d="M512.5 737.557c-0.38 0.001-0.831 0.002-1.28 0.002-216.884 0-392.703-175.82-392.703-392.703s175.82-392.703 392.703-392.703c216.884 0 392.703 175.82 392.703 392.703 0 0.224 0 0.448-0.001 0.673-0.363 216.125-175.314 391.301-391.353 392.028zM401.032 121.275v448.438l336.328-224.219z" />
<glyph unicode="&#xe929;" glyph-name="play2" d="M512.5 735.635c-0.19 0-0.415 0.001-0.641 0.001-215.469 0-390.141-174.672-390.141-390.141s174.672-390.141 390.141-390.141c215.468 0 390.141 174.672 390.141 390.14 0 0 0 0 0 0.001 0 215.243-174.307 389.776-389.465 390.14zM512.5 11.087c-0.19 0-0.415-0.001-0.641-0.001-184.687 0-334.407 149.719-334.407 334.407s149.719 334.407 334.407 334.407c184.687 0 334.407-149.718 334.407-334.406 0 0 0 0 0-0.001 0-184.462-149.354-334.041-333.731-334.406zM401.672 122.556l334.407 222.938-334.407 222.938v-445.875z" />
<glyph unicode="&#xe92a;" glyph-name="plus" d="M832.813 409.556h-256.25v256.25h-128.125v-256.25h-256.25v-128.125h256.25v-256.25h128.125v256.25h256.25v128.125z" />
<glyph unicode="&#xe92b;" glyph-name="preplay" d="M401.032 118.072l336.328 224.219-336.328 224.219v-448.438zM212.688 494.119h3.844q6.406 11.531 13.453 23.063l-47.406 30.109c-10.784-16.414-21.066-35.349-29.763-55.137l50.263-24.301zM284.438 589.572h8.328l11.531 9.609-34.594 44.203c-17.652-13.806-33.351-28.287-47.803-43.935l41.396-38.065zM179.375 296.806v0 10.25l-55.734-5.125c2.322-23.952 6.391-45.738 12.175-66.814l53.81 17.486c-3.885 12.107-7.449 27.006-9.983 42.254zM185.781 421.728l-57.656 12.813c-4.77-18.457-8.403-40.314-10.164-62.698l55.648-5.208c2.843 20.889 7.099 39.509 12.827 57.47zM576.563 672.853v0l30.109-7.047 15.375 53.813c-18.21 5.504-39.927 10.005-62.217 12.635l-8.252-55.557 24.984-3.844zM672.657 638.26h6.406l27.547-17.938 32.672 45.484c-16.224 11.659-34.695 22.743-54.064 32.284l-26.655-49.58 14.094-7.047zM832.813 437.744l53.813 16.016c-6.857 24.823-14.939 46.102-24.721 66.406l-49.591-26.687c7.629-15.653 14.623-34.171 19.944-53.384zM221.656 173.806h-4.484l-7.688 15.375-51.25-23.063c10.132-21.998 20.815-40.699 32.902-58.364l42.692 45.551zM488.797 677.978h23.703v57.016c-0.167 0-0.365 0-0.564 0-22.423 0-44.41-1.864-65.815-5.445l11.285-54.773zM902.001 389.697l-55.734-6.406q0-15.375 0-30.75v0 0 0c0-3.844 0-7.688 0-11.531h55.734q0 8.969 0 17.938c0.189 4.585 0.297 9.968 0.297 15.375s-0.108 10.789-0.322 16.143zM800.141 167.4h-19.219l-13.453-16.656 42.281-36.516c13.541 15.546 26.218 32.707 37.465 50.846l-47.074 31.154zM228.703 71.306c14.834-15.638 30.738-29.917 47.72-42.855l34.28 44.136c-15.358 11.639-28.96 23.819-41.507 37.014zM832.813 241.712v0 0h-3.844v-7.688l51.891-20.5c7.38 17.937 14.003 39.366 18.755 61.491l-54.63 14.103q-7.047-32.672-12.172-47.406zM714.298 73.228h-19.859l-12.813-7.688 28.188-48.688c20.428 11.822 38.016 24.103 54.483 37.694l-36.546 42.384zM832.813 570.353c-13.308 18.549-27.188 34.868-42.283 49.971l-39.717-39.721 5.125-5.125h12.813q10.25-11.531 19.219-24.344zM375.407 34.79h-16.656l-25.625-49.969c16.852-8.951 36.772-17.413 57.452-24.199l20.064 52.386c-13.651 4.432-24.678 8.774-35.401 13.665zM402.313 660.681l-17.938 52.531c-23.19-8.060-42.859-16.928-61.59-27.286l28.918-48.308c14.229 8.171 30.921 15.945 48.289 22.318zM614.36 21.978h-12.813l-19.219-4.484h-5.766l10.891-55.094c24.62 4.734 46.101 10.936 66.74 18.838l-23.818 43.943zM516.985 5.962h-51.891l-7.688-55.734c16.55-2.447 35.653-3.845 55.083-3.845 0.229 0 0.458 0 0.688 0.001h9.573v55.734z" />
<glyph unicode="&#xe92c;" glyph-name="procedure" d="M512.5 345.494h57.016v-57.016h-57.016v57.016zM901.36 669.65v64.063h-777.719v-64.063h64.063v-648.313c-0.117-1.397-0.183-3.025-0.183-4.668 0-32.904 26.674-59.578 59.578-59.578 1.643 0 3.27 0.066 4.879 0.197l516.774-0.014c1.397-0.117 3.025-0.183 4.668-0.183 32.904 0 59.578 26.674 59.578 59.578 0 1.643-0.066 3.27-0.197 4.879l0.014 648.102zM640.626 281.431c0-35.381-28.682-64.063-64.063-64.063h-64.063v-128.125h-128.125v256.25c0 35.381 28.682 64.063 64.063 64.063h128.125c35.381 0 64.063-28.682 64.063-64.063zM768.751 601.744h-64.063v-64.063h-448.438v128.125h512.5z" />
<glyph unicode="&#xe92d;" glyph-name="redo" d="M457.407 661.322c0.457 0.003 0.998 0.004 1.539 0.004 67.183 0 128.709-24.219 176.323-64.403l69.42-59.243 137.735 137.735v-329.922h-329.922l120.438 120.438-69.188 53.172c-27.41 22.388-62.79 35.953-101.339 35.953-1.76 0-3.513-0.028-5.259-0.084-91.045-0.899-164.708-75.121-164.708-166.549 0-50.701 22.653-96.111 58.39-126.661l276.979-245.551h-165.922l-183.219 162.078c-59.226 50.604-96.53 125.368-96.53 208.846 0 151.43 122.758 274.188 274.188 274.188 0.378 0 0.757-0.001 1.135-0.002z" />
<glyph unicode="&#xe92e;" glyph-name="refresh2" d="M765.548 178.29l139.016 167.203h-111.469c0.001 0.22 0.001 0.481 0.001 0.742 0 185.042-150.005 335.047-335.047 335.047s-335.047-150.005-335.047-335.047c0-185.042 150.005-335.047 335.047-335.047 106.865 0 202.044 50.031 263.393 127.948l-39.816 40.435c-51.065-66.729-130.742-109.337-220.371-109.337-152.845 0-276.75 123.905-276.75 276.75s123.905 276.75 276.75 276.75c152.845 0 276.75-123.905 276.75-276.75 0-0.525-0.001-1.048-0.004-1.573l-111.469 0.081z" />
<glyph unicode="&#xe92f;" glyph-name="reload" d="M619.485 473.619h-106.984v-128.125l-256.25 192.188 256.25 192.188v-128.125h106.984s213.328 0 213.328-192.188v-128.125c-1.341 106.884-88.3 193.014-195.377 193.014-6.321 0-12.571-0.3-18.738-0.887zM405.516 217.369h106.984v128.125l256.25-192.188-256.25-192.188v128.125h-106.984s-213.328 0-213.328 192.188v128.125c1.341-106.884 88.3-193.014 195.377-193.014 6.321 0 12.571 0.3 18.738 0.887z" />
<glyph unicode="&#xe930;" glyph-name="run-planview" d="M135.813 628.010v-502.25l251.125 251.125-251.125 251.125zM575.282 502.447v188.344h-313.907v-62.781l125.563-125.563h188.344zM638.063 439.666v-62.781h-125.563l-62.781-62.781h188.344v-62.781h251.125v188.344h-251.125zM638.063 125.759h-376.688l-62.781-62.781h439.469v-62.781h251.125v188.344h-251.125v-62.781z" />
<glyph unicode="&#xe931;" glyph-name="run-sql" d="M182.578 255.165v-179.375h119.797v-60.219h-119.797v-60.219h180.016v180.016h-119.797v60.219h119.797v59.578h-180.016zM422.813 15.571h119.797v-60.219h59.578v299.813h-179.375zM483.032 195.587h60.219v-119.797h-60.859zM722.626 15.571v239.594h-60.219v-299.813h180.016v60.219h-119.797zM362.594 674.775v-359.391l299.813 180.016-299.813 179.375z" />
<glyph unicode="&#xe932;" glyph-name="save" d="M704.688 729.869h-576.563v-768.751h768.751v576.563zM256.25 665.806h192.188v-64.063h64.063v64.063h64.063v-128.125h-320.313zM512.5 25.181c-106.143 0-192.188 86.045-192.188 192.188s86.045 192.188 192.188 192.188c106.143 0 192.188-86.045 192.188-192.188s-86.045-192.188-192.188-192.188zM641.907 217.369c0-70.761-57.364-128.125-128.125-128.125s-128.125 57.364-128.125 128.125c0 70.761 57.364 128.125 128.125 128.125s128.125-57.364 128.125-128.125z" />
<glyph unicode="&#xe933;" glyph-name="search" d="M873.173 66.822l-192.188 192.188c33.784 48.86 53.966 109.372 53.966 174.597 0 170.889-138.533 309.422-309.422 309.422s-309.422-138.533-309.422-309.422c0-170.889 138.533-309.422 309.422-309.422 66.107 0 127.37 20.73 177.647 56.046l191.2-192.845zM232.547 430.056c0.364 107.989 87.99 195.391 196.030 195.391 108.265 0 196.031-87.767 196.031-196.031s-87.766-196.030-196.030-196.031c-108.265 0-196.031 87.767-196.031 196.031z" />
<glyph unicode="&#xe934;" glyph-name="session" d="M512.5 737.557c-185.781 0-336.328-74.953-336.328-168.485v-448.438c0-95.453 150.547-167.844 336.328-167.844s336.328 72.391 336.328 168.485v448.438c0 92.891-150.547 167.844-336.328 167.844zM512.5 457.603c-171.047 0-279.953 64.063-279.953 112.109s108.906 112.109 279.953 112.109 280.594-64.063 280.594-112.109-109.547-112.109-280.594-112.109z" />
<glyph unicode="&#xe935;" glyph-name="sort-asc" d="M482.391 674.135h179.375v-119.797h-179.375v119.797zM482.391 494.759h299.172v-119.797h-299.172v119.797zM482.391 315.384h418.329v-119.797h-418.329v119.797zM363.235 136.009v598.344h-119.797v-598.344h-119.797l179.375-179.375 179.375 179.375h-119.156z" />
<glyph unicode="&#xe936;" glyph-name="sort-desc" d="M483.032 137.29h178.094v-119.156h-178.094v119.156zM483.032 316.025h297.25v-119.156h-297.25v119.156zM483.032 494.119h415.766v-119.156h-415.766v119.156zM304.297 731.791l-178.094-178.094h119.156v-594.501h118.516v594.501h119.156l-178.735 178.094z" />
<glyph unicode="&#xe937;" glyph-name="panel-view-column" d="M624.61 405.712h56.375v-56.375h-56.375v56.375zM736.719 405.712h56.375v-56.375h-56.375v56.375zM624.61 291.681h56.375v-56.375h-56.375v56.375zM736.719 291.681h56.375v-56.375h-56.375v56.375zM624.61 181.493h56.375v-56.375h-56.375v56.375zM736.719 181.493h56.375v-56.375h-56.375v56.375zM249.844 405.712h56.375v-56.375h-56.375v56.375zM361.953 405.712h56.375v-56.375h-56.375v56.375zM249.844 291.681h56.375v-56.375h-56.375v56.375zM361.953 291.681h56.375v-56.375h-56.375v56.375zM249.844 181.493h56.375v-56.375h-56.375v56.375zM361.953 181.493h56.375v-56.375h-56.375v56.375zM120.438 685.666v-672.657h784.766v672.657zM176.813 210.962v250.485h309.422v-392.703h-310.063zM848.829 345.494v-276.11h-306.86v392.063h306.86z" />
<glyph unicode="&#xe938;" glyph-name="add-panel-plsql" d="M832.813 458.244v71.75l-212.688 192.188h-427.938v-263.938h-64.063v-448.438h64.063v-56.375h640.626v56.375h64.063v448.438zM624.61 650.431l154.391-139.016h-154.391zM848.829 55.29h-672.657v354.266h672.657zM399.75 118.712v143.5h-96.094v48.047h96.094v48.047h-144.141v-144.141h96.094v-47.406h-96.094v-48.047h144.141zM448.438 358.306v-192.188h96.094v-48.047h48.047v240.235zM543.251 217.369h-47.406v92.891h48.047zM783.485 166.759h-96.094v191.547h-48.047v-239.594h144.141v48.047z" />
<glyph unicode="&#xe939;" glyph-name="stop-invert" d="M512.5 737.557c-216.884 0-392.702-175.82-392.702-392.703s175.82-392.703 392.703-392.703c216.884 0 392.703 175.82 392.703 392.703 0 0.225 0 0.45-0.001 0.676-0.364 216.573-176.044 392.028-392.702 392.028 0 0 0 0-0.001 0zM680.985 177.009h-336.328v336.328h336.328z" />
<glyph unicode="&#xe93a;" glyph-name="stop" d="M512.5 737.557c-216.884 0-392.702-175.82-392.702-392.703s175.82-392.703 392.703-392.703c216.884 0 392.703 175.82 392.703 392.703 0 0.225 0 0.45-0.001 0.676-0.364 216.573-176.044 392.028-392.702 392.028 0 0 0 0-0.001 0zM512.5 9.165c-185.749 0-336.328 150.579-336.328 336.328s150.579 336.328 336.328 336.328c185.749 0 336.328-150.579 336.328-336.328-0.363-185.602-150.726-335.965-336.293-336.328zM344.657 513.338h336.328v-336.328h-336.328v336.328z" />
<glyph unicode="&#xe93b;" glyph-name="table" d="M147.344 678.619v-674.579h730.313v674.579zM372.203 60.415h-169.125v112.75h169.125zM372.203 228.9h-169.125v112.75h169.125zM372.203 397.384h-169.125v112.75h169.125zM597.063 60.415h-169.125v112.75h169.125zM597.063 228.9h-169.125v112.75h169.125zM597.063 397.384h-169.125v112.75h169.125zM821.923 60.415h-169.125v112.75h168.485zM821.923 228.9h-169.125v112.75h168.485zM821.923 397.384h-169.125v112.75h168.485z" />
<glyph unicode="&#xe93c;" glyph-name="terminal" d="M832.813 665.806h-704.688v-640.626h768.751v640.626zM832.813 89.243h-640.626v512.5h640.626zM256.891 283.994h512.5v-128.125h-512.5v128.125z" />
<glyph unicode="&#xe93d;" glyph-name="tree-addnode" d="M668.813 619.041c-37.165-0.163-68.74-23.919-80.533-57.057l-292.952-0.6c-0.386-0.009-0.841-0.015-1.296-0.015-31.135 0-56.375 25.24-56.375 56.375 0 0.455 0.005 0.91 0.016 1.363l-0.001 114.605h-115.313v-576.563c-0.019-0.772-0.030-1.681-0.030-2.593 0-62.27 50.48-112.75 112.75-112.75 0.912 0 1.821 0.011 2.727 0.032l120.302-0.003c12.231-33.878 44.108-57.656 81.539-57.656 47.764 0 86.484 38.721 86.484 86.484s-38.721 86.484-86.484 86.484c-37.431 0-69.307-23.778-81.348-57.054l-64.253-0.603c-0.386-0.009-0.841-0.015-1.296-0.015-31.135 0-56.375 25.24-56.375 56.375 0 0.455 0.005 0.91 0.016 1.363l-0.001 128.058c16.84-8.284 36.571-13.411 57.427-14.088l178.964-0.006c12.231-33.878 44.108-57.656 81.539-57.656 47.764 0 86.484 38.721 86.484 86.484s-38.721 86.484-86.484 86.484c-37.431 0-69.307-23.778-81.348-57.054l-177.643-0.603c-0.386-0.009-0.841-0.015-1.296-0.015-31.135 0-56.375 25.24-56.375 56.375 0 0.455 0.005 0.91 0.016 1.363l-0.001 128.058c16.84-8.284 36.571-13.411 57.427-14.088l292.995-0.006c12.377-33.176 43.793-56.375 80.628-56.375 47.41 0 85.844 38.434 85.844 85.844 0 47.378-38.381 85.792-85.748 85.844zM467.657 72.587c0-15.922-12.907-28.828-28.828-28.828s-28.828 12.907-28.828 28.828c0 15.922 12.907 28.828 28.828 28.828s28.828-12.907 28.828-28.828zM554.141 328.837c15.922 0 28.828-12.907 28.828-28.828s-12.907-28.828-28.828-28.828c-15.922 0-28.828 12.907-28.828 28.828-0.073 0.768-0.114 1.661-0.114 2.563 0 15.922 12.907 28.828 28.828 28.828 0.040 0 0.080 0 0.12 0zM669.454 501.166c-15.922 0-28.828 12.907-28.828 28.828s12.907 28.828 28.828 28.828c15.922 0 28.828-12.907 28.828-28.828-1.353-14.784-13.692-26.276-28.715-26.276-0.265 0-0.53 0.004-0.793 0.011zM923.782 140.493h-137.094v137.094h-69.188v-137.094h-137.094v-69.188h137.094v-137.094h69.188v137.094h137.094v69.188z" />
<glyph unicode="&#xe93e;" glyph-name="tree-removenode" d="M295.969 273.744h178.094c12.231-33.878 44.108-57.656 81.539-57.656 47.764 0 86.484 38.721 86.484 86.484s-38.721 86.484-86.484 86.484c-37.431 0-69.307-23.778-81.348-57.054l-178.284-0.603c-0.386-0.009-0.841-0.015-1.296-0.015-31.135 0-56.375 25.24-56.375 56.375 0 0.455 0.005 0.91 0.016 1.363l-0.001 128.058c16.84-8.284 36.571-13.411 57.427-14.088l292.995-0.006c12.231-33.878 44.108-57.656 81.539-57.656 47.764 0 86.484 38.721 86.484 86.484s-38.721 86.484-86.484 86.484c-37.431 0-69.307-23.778-81.348-57.054l-292.956-0.603c-0.386-0.009-0.841-0.015-1.296-0.015-31.135 0-56.375 25.24-56.375 56.375 0 0.455 0.005 0.91 0.016 1.363l-0.001 115.246h-114.672v-576.563c-0.019-0.772-0.030-1.681-0.030-2.593 0-62.27 50.48-112.75 112.75-112.75 0.912 0 1.821 0.011 2.727 0.032l119.662-0.003c12.231-33.878 44.108-57.656 81.539-57.656 47.764 0 86.484 38.721 86.484 86.484s-38.721 86.484-86.484 86.484c-37.431 0-69.307-23.778-81.348-57.054l-64.253-0.603c-0.386-0.009-0.841-0.015-1.296-0.015-31.135 0-56.375 25.24-56.375 56.375 0 0.455 0.005 0.91 0.016 1.363l-0.001 128.058c16.636-7.303 36.028-11.553 56.412-11.553 0.888 0 1.774 0.008 2.658 0.024zM552.219 331.4c15.922 0 28.828-12.907 28.828-28.828s-12.907-28.828-28.828-28.828c-15.922 0-28.828 12.907-28.828 28.828 0 0.034 0 0.074 0 0.114 0 15.922 12.907 28.828 28.828 28.828 0.902 0 1.795-0.041 2.676-0.122zM667.532 561.384c15.922 0 28.828-12.907 28.828-28.828s-12.907-28.828-28.828-28.828c-15.922 0-28.828 12.907-28.828 28.828 0 0.019 0 0.042 0 0.064 0 15.922 12.907 28.828 28.828 28.828 0.677 0 1.347-0.023 2.012-0.069zM439.469 101.415c15.922 0 28.828-12.907 28.828-28.828s-12.907-28.828-28.828-28.828c-15.922 0-28.828 12.907-28.828 28.828s12.907 28.828 28.828 28.828zM582.329 138.572h336.969v-67.266h-336.969v67.266z" />
<glyph unicode="&#xe93f;" glyph-name="tree" d="M780.282 612.635c-38.576-0.048-71.401-24.618-83.728-58.957l-303.21-0.622c-0.385-0.009-0.84-0.014-1.295-0.014-32.196 0-58.297 26.1-58.297 58.297 0 0.455 0.005 0.91 0.016 1.363l-0.001 117.167h-118.516v-595.141c-0.018-0.772-0.029-1.681-0.029-2.592 0-64.393 52.201-116.594 116.594-116.594 0.911 0 1.82 0.010 2.726 0.031l124.146-0.002c12.623-34.825 45.416-59.258 83.917-59.258 49.179 0 89.047 39.868 89.047 89.047s-39.868 89.047-89.047 89.047c-38.5 0-71.293-24.433-83.72-58.638l-64.26-0.62c-0.385-0.009-0.84-0.014-1.295-0.014-32.196 0-58.297 26.1-58.297 58.297 0 0.455 0.005 0.91 0.016 1.363l-0.001 135.746c17.39-8.624 37.773-13.981 59.327-14.727l182.189-0.007c12.623-34.825 45.416-59.258 83.917-59.258 49.179 0 89.047 39.868 89.047 89.047s-39.868 89.047-89.047 89.047c-38.5 0-71.293-24.433-83.72-58.638l-183.416-0.62c-0.385-0.009-0.84-0.014-1.295-0.014-32.196 0-58.297 26.1-58.297 58.297 0 0.455 0.005 0.91 0.016 1.363l-0.001 133.824c17.39-8.624 37.773-13.981 59.327-14.727l303.267-0.007c12.713-34.657 45.422-58.938 83.802-58.938 49.179 0 89.047 39.868 89.047 89.047 0 49.137-39.799 88.979-88.921 89.047zM572.079 47.603c0-16.275-13.194-29.469-29.469-29.469s-29.469 13.194-29.469 29.469c0 16.275 13.194 29.469 29.469 29.469s29.469-13.194 29.469-29.469zM661.126 315.384c16.275 0 29.469-13.194 29.469-29.469s-13.194-29.469-29.469-29.469c-16.275 0-29.469 13.194-29.469 29.469s13.194 29.469 29.469 29.469zM780.282 494.119c-16.275 0-29.469 13.194-29.469 29.469s13.194 29.469 29.469 29.469c16.275 0 29.469-13.194 29.469-29.469s-13.194-29.469-29.469-29.469z" />
<glyph unicode="&#xe940;" glyph-name="trigger" d="M848.829 453.759v112.109h-55.734v-56.375h-560.547l-55.734-56.375v-56.375h111.469l56.375 55.734h56.375l-55.734-56.375h-57.016v-56.375h-112.109l56.375-56.375-112.109-224.219h279.953l56.375 167.844h55.734c0.382-0.010 0.833-0.015 1.285-0.015 30.428 0 55.094 24.666 55.094 55.094 0 0.23-0.001 0.46-0.004 0.691-0.002 0.16-0.004 0.39-0.004 0.621 0 30.428 24.666 55.094 55.094 55.094 0.451 0 0.903-0.005 1.352-0.016l224.152 0.001v58.938h56.375v56.375zM400.391 229.54l-55.734-112.109h-112.109l112.109 224.219h56.375zM400.391 397.384l56.375 55.734h55.734l-55.734-56.375zM456.766 285.275v56.375h55.734c0.010-0.382 0.015-0.833 0.015-1.285 0-30.428-24.666-55.094-55.094-55.094-0.23 0-0.46 0.001-0.691 0.004zM512.5 397.384l56.375 55.734h56.375l-55.734-56.375z" />
<glyph unicode="&#xe941;" glyph-name="undo" d="M567.594 661.322c-0.457 0.003-0.998 0.004-1.539 0.004-67.183 0-128.709-24.219-176.323-64.403l-69.42-59.243-137.094 137.094v-329.282h329.282l-120.438 120.438 69.188 53.172c27.41 22.388 62.79 35.953 101.339 35.953 1.76 0 3.513-0.028 5.259-0.084 90.724-1.311 163.97-75.372 163.97-166.54 0-50.359-22.349-95.498-57.669-126.041l-276.961-246.179h165.922l183.219 162.078c59.226 50.604 96.53 125.368 96.53 208.846 0 151.43-122.758 274.188-274.188 274.188-0.378 0-0.757-0.001-1.135-0.002z" />
<glyph unicode="&#xe942;" glyph-name="update" d="M512.5 132.165l237.031 532.36h117.875l-295.969-650.876h-117.875l-237.031 355.547h177.453l118.516-237.031z" />
<glyph unicode="&#xe943;" glyph-name="user" d="M682.907 569.713c0-93.052-75.433-168.485-168.485-168.485s-168.485 75.433-168.485 168.485c0 93.052 75.433 168.485 168.485 168.485s168.485-75.433 168.485-168.485zM738.641 345.494h-112.109l-112.109-168.485-112.109 168.485h-112.109l-56.375-392.703h560.547l-55.734 392.703z" />
<glyph unicode="&#xe944;" glyph-name="view" d="M512.5 565.869c-185.781 0-336.328-100.578-336.328-224.219s150.547-224.219 336.328-224.219 336.328 100.578 336.328 224.219-150.547 224.219-336.328 224.219zM512.5 173.165c-93.052 0-168.485 75.433-168.485 168.485s75.433 168.485 168.485 168.485c93.052 0 168.485-75.433 168.485-168.485 0.001-0.19 0.001-0.416 0.001-0.642 0-92.698-75.146-167.844-167.844-167.844-0.225 0-0.451 0-0.677 0.001zM624.61 341.65c0-61.916-50.193-112.109-112.109-112.109s-112.109 50.193-112.109 112.109c0 61.916 50.193 112.109 112.109 112.109s112.109-50.193 112.109-112.109z" />
<glyph unicode="&#xe945;" glyph-name="unplug" d="M566.954 740.76v-94.172h69.828l-124.281-108.906-119.797 108.906h69.188v94.172h105.063zM615.001 788.807h-201.156v-94.172h-146.063l92.891-83.922 121.719-110.188 30.109-26.906 32.031 28.828 214.61 194.11h-144.141v92.25zM783.485 257.728h-37.797v115.313c-1.074 41.976-35.357 75.594-77.492 75.594-0.008 0-0.017 0-0.025 0h-306.859c-0.007 0-0.015 0-0.024 0-42.135 0-76.418-33.618-77.49-75.495l-0.002-115.412h-37.797v-232.547l64.063-128.125h408.719l64.063 128.125zM668.173 257.728h-76.234v75.594h-39.719v-75.594h-75.594v75.594h-39.719v-75.594h-75.594v115.313h306.86z" />
<glyph unicode="&#xe946;" glyph-name="plug" d="M743.766 541.525v115.313c-2.437 40.839-36.151 73.035-77.387 73.035-0.271 0-0.542-0.001-0.812-0.004h-306.178c-0.229 0.002-0.499 0.004-0.77 0.004-41.234 0-74.949-32.196-77.376-72.821l-0.010-115.527h-37.797v-231.266l115.313-231.266v-117.875h114.031v397.829h-78.797l118.516 118.516 118.516-118.516h-78.797v-397.829h114.031v115.313l115.313 231.266v233.828zM666.251 541.525h-76.234v75.594h-39.719v-75.594h-75.594v75.594h-39.719v-75.594h-75.594v115.313h306.86z" />
<glyph unicode="&#xe947;" glyph-name="tran-commit" d="M691.876 594.697l-179.375-179.375-179.375 179.375h101.859v154.391h154.391v-154.391h102.5zM673.298 516.541l-39.078-35.875c92.891-16.656 144.141-49.328 144.141-74.953s-103.141-85.844-265.86-85.844-267.141 50.609-267.141 85.844 51.891 58.297 144.781 74.953l-39.078 35.234c-94.813-21.781-158.875-62.781-158.875-110.188v-343.375c0-71.109 143.5-128.125 320.313-128.125s320.313 57.656 320.313 128.125v343.375c0 47.406-64.063 88.406-159.516 110.828z" />
<glyph unicode="&#xe948;" glyph-name="tran-rollback" d="M652.797 519.744v-46.125c79.438-17.297 128.125-47.406 128.125-71.109 0-35.234-103.781-85.844-267.141-85.844s-268.422 53.172-268.422 88.406c0 23.703 48.688 54.453 128.125 71.75v44.203c-105.703-20.5-181.297-64.703-181.297-115.953v-342.735c0-71.109 143.5-128.125 320.313-128.125s320.313 57.656 320.313 128.125v342.735c0 50.609-73.672 94.172-180.016 114.672zM333.125 578.041l179.375 179.375 179.375-179.375h-102.5v-154.391h-153.75v154.391h-102.5z" />
<glyph unicode="&#xe949;" glyph-name="functions" d="M411.922 567.15v110.188h-275.469v-661.126h768.751v550.938zM467.016 71.306l-55.094 55.094 110.188 110.188v108.906h-55.094v56.375h165.281v-56.375h-55.734v-108.906l110.188-110.188-55.094-55.094zM192.188 456.963v165.281h164.641v-110.188h495.844v-55.094z" />
<glyph unicode="&#xe94a;" glyph-name="procedures" d="M402.954 565.228v109.547h-274.828v-658.563h768.751v549.016zM458.047 71.306c-0.386-0.010-0.841-0.016-1.297-0.016-29.72 0-53.813 24.093-53.813 53.813 0 0.456 0.006 0.911 0.017 1.364l-0.001 219.027h-55.094v55.094h109.547v-110.188h110.188v-55.094h55.094v165.281h109.547v-55.094h-55.094v-219.735c0.010-0.386 0.016-0.841 0.016-1.297 0-29.72-24.093-53.813-53.813-53.813-0.456 0-0.911 0.006-1.364 0.017zM183.219 455.681v164.641h164.641v-110.188h493.922v-55.094zM567.594 180.853h55.094v-55.094h-55.094v55.094z" />
<glyph unicode="&#xe94b;" glyph-name="tables" d="M402.954 565.228v109.547h-274.828v-658.563h768.751v549.016zM402.954 125.759h-110.188v55.094h110.188zM402.954 235.306h-110.188v55.094h110.188zM402.954 345.494h-110.188v55.094h110.188zM567.594 125.759h-110.188v55.094h110.188zM567.594 235.306h-110.188v55.094h110.188zM567.594 345.494h-110.188v55.094h110.188zM732.235 125.759h-110.188v55.094h109.547zM732.235 235.306h-110.188v55.094h109.547zM732.235 344.853h-110.188v55.734h109.547zM841.782 454.4h-658.563v165.922h164.641v-110.188h493.922z" />
<glyph unicode="&#xe94c;" glyph-name="triggers" d="M402.954 566.509v109.547h-274.828v-658.563h768.751v549.016zM787.329 291.681h-55.094v-55.094h-55.094c-0.386 0.010-0.841 0.016-1.297 0.016-29.72 0-53.813-24.093-53.813-53.813 0-0.456 0.006-0.911 0.017-1.364 0.009-0.319 0.014-0.774 0.014-1.23 0-29.72-24.093-53.813-53.813-53.813-0.456 0-0.911 0.006-1.364 0.017l-54.386-0.001v-55.094h-164.641v110.828l-55.094 55.094h55.094v54.453h-55.094v53.813l55.094 55.094h384.375v-55.094h55.094zM842.423 456.322h-659.204v165.281h164.641v-110.188h493.922z" />
<glyph unicode="&#xe94d;" glyph-name="views" d="M403.594 566.509v109.547h-275.469v-658.563h768.751v549.016zM512.5 127.040c-121.078 0-219.735 64.063-219.735 137.094s99.297 137.735 219.735 137.735 219.735-64.063 219.735-137.094-97.375-137.735-219.735-137.735zM841.782 456.322h-657.923v165.281h164.641v-110.188h493.922zM568.235 264.134c0-45.642-24.666-82.641-55.094-82.641s-55.094 36.999-55.094 82.641c0 45.642 24.666 82.641 55.094 82.641s55.094-36.999 55.094-82.641z" />
<glyph unicode="&#xe94e;" glyph-name="spinner" d="M384.375 729.869c0 70.761 57.364 128.125 128.125 128.125s128.125-57.364 128.125-128.125c0-70.761-57.364-128.125-128.125-128.125s-128.125 57.364-128.125 128.125zM791.767 345.494c0 0 0 0 0 0 0 58.049 47.060 105.109 105.109 105.109s105.109-47.058 105.109-105.109c0 0 0 0 0 0 0-58.051-47.060-105.109-105.109-105.109s-105.109 47.060-105.109 105.109zM689.097 73.698c0 52.577 42.622 95.199 95.199 95.199s95.199-42.622 95.199-95.199c0-52.577-42.622-95.199-95.199-95.199s-95.199 42.622-95.199 95.199zM426.278-38.882c0 47.619 38.602 86.222 86.222 86.222s86.222-38.602 86.222-86.222c0-47.619-38.602-86.222-86.222-86.222s-86.222 38.602-86.222 86.222zM162.613 73.698c0 43.13 34.964 78.094 78.094 78.094s78.094-34.964 78.094-78.094c0-43.13-34.964-78.094-78.094-78.094s-78.094 34.964-78.094 78.094zM57.394 345.494c0 39.064 31.667 70.731 70.731 70.731s70.731-31.667 70.731-70.731c0-39.064-31.667-70.731-70.731-70.731s-70.731 31.667-70.731 70.731zM176.645 617.287c0 0 0 0 0 0 0 35.381 28.682 64.063 64.063 64.063s64.063-28.682 64.063-64.063c0 0 0 0 0 0 0-35.381-28.682-64.063-64.063-64.063s-64.063 28.682-64.063 64.063zM900.343 617.287c0-64.087-51.957-116.047-116.049-116.047-64.087 0-116.049 51.961-116.049 116.047 0 64.095 51.963 116.047 116.049 116.047 64.093 0 116.049-51.953 116.049-116.047z" />
<glyph unicode="&#xe94f;" glyph-name="add-panel-sql" d="M496.485 314.103h46.125v-92.25h-46.125v92.25zM832.813 406.353v131.328l-212.688 192.188h-427.938v-323.516h-64.063v-323.516h64.063v-121.719h640.626v121.719h64.063v323.516zM768.751 175.087h5.125v-46.125h-138.375v231.266h46.125v-185.141zM256.25 665.806h320.313v-192.188h192.188v-67.266h-512.5zM448.438 175.087v185.141h140.938v-231.266h-46.766v46.125zM358.11 267.337h46.125v-138.375h-138.375v46.125h92.25v46.125h-92.25v139.016h138.375v-46.125h-92.25v-46.125zM768.751 25.181h-512.5v57.656h512.5z" />
</font>
</defs>
</svg>
