<!-- Generated by IcoMoon.io -->
<svg version="1.1" xmlns="http://www.w3.org/2000/svg" width="1024" height="1024" viewBox="0 0 1024 1024">
<title></title>
<g id="icomoon-ignore">
</g>
<path d="M896.876 871.518v-556.543c0-24.023-18.018-42.041-42.041-42.041h-376.368l50.049 172.168h82.080v-44.043h46.045v44.043h154.151v44.043h-54.053c-14.014 54.053-44.043 106.104-82.080 150.147l116.113 114.111-30.029 32.031-116.113-114.111-38.037 38.037 34.033 118.115-86.084 86.084h300.293c24.023 0 42.041-18.018 42.041-42.041zM596.583 535.19c10.010 20.020 26.025 46.045 48.047 72.070 52.051-62.061 66.065-118.115 66.065-118.115h-170.166l14.014 46.045h42.041zM564.551 567.221l26.025 94.092 24.023-22.022c-20.020-22.022-36.035-46.045-50.049-72.070zM474.463 469.125c0-9.851-0.281-22.583-4.004-30.029h-168.164v66.065h94.092c-6.006 26.025-32.031 64.063-90.088 64.063-56.055 0-102.1-48.047-102.1-104.102s46.045-104.102 102.1-104.102c32.031 0 52.051 14.014 64.063 26.025l4.004 2.002 52.051-50.049-4.004-2.002c-32.031-30.029-72.070-46.045-116.113-46.045-96.094 0-174.17 78.076-174.17 174.17s78.076 174.17 174.17 174.17c98.096 0 168.164-70.068 168.164-170.166zM854.835 230.892c46.045 0 84.082 38.037 84.082 84.082v556.543c0 46.045-38.037 84.082-84.082 84.082h-342.334l-42.041-128.125h-300.293c-46.045 0-84.082-38.037-84.082-84.082v-556.543c0-46.045 38.037-84.082 84.082-84.082h256.25l38.037 128.125h390.381z"></path>
</svg>
