<svg xmlns="http://www.w3.org/2000/svg" width="1024" height="1024" viewBox="0 0 1024 1024"><path d="M896.876 871.518V314.975c0-24.023-18.018-42.041-42.041-42.041H478.467l50.049 172.168h82.08v-44.043h46.045v44.043h154.151v44.043h-54.053c-14.014 54.053-44.043 106.104-82.08 150.147l116.113 114.111-30.029 32.031L644.63 671.323l-38.037 38.037 34.033 118.115-86.084 86.084h300.293c24.023 0 42.041-18.018 42.041-42.041zM596.583 535.19c10.01 20.02 26.025 46.045 48.047 72.07 52.051-62.061 66.065-118.115 66.065-118.115H540.529l14.014 46.045h42.041zm-32.032 32.031l26.025 94.092 24.023-22.022c-20.02-22.022-36.035-46.045-50.049-72.07zm-90.088-98.096c0-9.851-.281-22.583-4.004-30.029H302.295v66.065h94.092c-6.006 26.025-32.031 64.063-90.088 64.063-56.055 0-102.1-48.047-102.1-104.102s46.045-104.102 102.1-104.102c32.031 0 52.051 14.014 64.063 26.025l4.004 2.002 52.051-50.049-4.004-2.002c-32.031-30.029-72.07-46.045-116.113-46.045-96.094 0-174.17 78.076-174.17 174.17s78.076 174.17 174.17 174.17c98.096 0 168.164-70.068 168.164-170.166zm380.372-238.233c46.045 0 84.082 38.037 84.082 84.082v556.543c0 46.045-38.037 84.082-84.082 84.082H512.501L470.46 827.474H170.167c-46.045 0-84.082-38.037-84.082-84.082V186.849c0-46.045 38.037-84.082 84.082-84.082h256.25l38.037 128.125h390.381z"/></svg>